<svg width="269" height="179" viewBox="0 0 269 179" fill="none" xmlns="http://www.w3.org/2000/svg">
<path d="M179.311 178.593C188.008 175.874 195.812 173.097 205.2 167.825C214.882 162.387 257.892 136.509 263.485 91.7222C264.95 79.4474 263.734 67.0008 259.92 55.2418C258.191 50.1733 254.605 39.9935 245.555 29.926C234.476 17.5946 221.834 12.8151 214.421 10.1123C198.825 4.42293 185.744 4.72265 179.514 4.92603C172.792 5.14547 160.926 5.63787 147.439 11.5306C138.64 15.3735 133.17 19.7569 125.11 26.308C112.339 36.6965 110.659 41.0211 88.3188 62.4726C82.1852 68.36 77.1435 73.0003 69.447 77.5711C64.1109 80.7396 59.7971 82.5111 51.8384 85.7438C32.2762 93.6918 26.7064 95.3011 20.3052 99.7755C7.85607 108.483 8.66242 117.98 8.1272 120.025C6.73541 125.253 6.4132 130.709 7.17987 136.065C8.81228 146.807 14.598 153.829 18.1893 158.078C23.1189 163.859 29.0924 168.659 35.7979 172.23C40.453 174.686 45.2747 176.812 50.2274 178.593H179.311Z" fill="#EFEDEF"/>
<path d="M146.629 7.96672C160.677 1.83299 173.035 1.31552 180.041 1.08779C186.526 0.877042 200.152 0.565952 216.401 6.49265C224.122 9.30871 237.289 14.2872 248.83 27.1294C258.254 37.6155 261.99 48.2205 263.789 53.4986C267.76 65.7469 269.027 78.711 267.502 91.4964C261.679 138.15 216.877 165.102 206.793 170.768" stroke="#6A8D99" stroke-miterlimit="10"/>
<path d="M185.593 178.331H167.165L164.741 150.024H188.017L185.593 178.331Z" fill="#A9E5DB"/>
<path d="M167.166 178.331C168.596 173.579 170.083 168.845 171.578 164.114C172.315 161.745 173.088 159.388 173.845 157.025L176.125 149.941C176.143 149.887 176.177 149.841 176.222 149.807C176.268 149.774 176.323 149.756 176.38 149.756C176.436 149.756 176.491 149.774 176.537 149.807C176.582 149.841 176.616 149.887 176.634 149.941L178.915 157.025C179.67 159.388 180.445 161.745 181.182 164.114L183.415 171.214L185.593 178.331L183.165 171.295L180.791 164.241C179.992 161.892 179.231 159.531 178.451 157.176L176.125 150.107H176.634L174.307 157.176C173.528 159.531 172.766 161.892 171.967 164.241C170.391 168.945 168.806 173.647 167.166 178.331Z" fill="#32B6A0"/>
<path d="M164.741 150.024C166.783 154.7 168.77 159.398 170.749 164.099L173.694 171.162L176.626 178.229H176.132L179.063 171.161C180.045 168.807 181.008 166.446 182.008 164.099L184.987 157.051L188.017 150.024L185.229 157.15L182.389 164.256C181.449 166.627 180.472 168.983 179.514 171.347L176.626 178.432C176.606 178.482 176.572 178.524 176.528 178.553C176.484 178.583 176.432 178.599 176.379 178.599C176.326 178.599 176.274 178.583 176.23 178.553C176.186 178.524 176.152 178.482 176.132 178.432L173.245 171.347L170.37 164.255C168.47 159.521 166.578 154.784 164.741 150.024Z" fill="#32B6A0"/>
<path d="M165.953 165.632C167.691 165.522 169.428 165.47 171.166 165.427C172.904 165.378 174.641 165.372 176.379 165.365C178.117 165.371 179.854 165.378 181.592 165.426L184.198 165.501C185.067 165.546 185.936 165.572 186.805 165.632C185.936 165.693 185.067 165.719 184.198 165.763L181.592 165.838C179.854 165.887 178.117 165.894 176.379 165.9C174.641 165.893 172.904 165.886 171.166 165.837C169.428 165.794 167.691 165.743 165.953 165.632Z" fill="#32B6A0"/>
<path d="M188.34 147.465H164.419C164.038 147.465 163.728 147.775 163.728 148.156V149.333C163.728 149.715 164.038 150.024 164.419 150.024H188.34C188.721 150.024 189.03 149.715 189.03 149.333V148.156C189.03 147.775 188.721 147.465 188.34 147.465Z" fill="#32B6A0"/>
<path d="M124.696 8.39043H120.347C119.039 8.39043 117.979 9.4503 117.979 10.7577V15.1065C117.979 16.4139 119.039 17.4738 120.347 17.4738H124.696C126.003 17.4738 127.063 16.4139 127.063 15.1065V10.7577C127.063 9.4503 126.003 8.39043 124.696 8.39043Z" fill="#DC8758"/>
<path d="M97.8529 178.465H94.1738L109.084 111.445L116.596 113.467L97.8529 178.465Z" fill="#DC8758"/>
<path d="M147.638 178.465H151.316L136.406 111.445L128.895 113.467L147.638 178.465Z" fill="#DC8758"/>
<path d="M184.425 13.7526H60.3748C59.5032 13.7526 58.7966 14.4591 58.7966 15.3308V119.072C58.7966 119.944 59.5032 120.65 60.3748 120.65H184.425C185.297 120.65 186.003 119.944 186.003 119.072V15.3308C186.003 14.4591 185.297 13.7526 184.425 13.7526Z" fill="#A9E5DB"/>
<path d="M133.372 32.9704C133.224 32.9703 133.081 32.9125 132.974 32.8092C132.867 32.7059 132.804 32.5651 132.799 32.4165C132.793 32.2679 132.846 32.123 132.945 32.0122C133.044 31.9015 133.183 31.8335 133.331 31.8226L143.87 31.0477C143.945 31.0422 144.02 31.0516 144.092 31.0753C144.164 31.099 144.23 31.1365 144.287 31.1858C144.344 31.2351 144.391 31.2952 144.425 31.3626C144.459 31.43 144.479 31.5035 144.485 31.5787C144.49 31.654 144.481 31.7296 144.457 31.8012C144.433 31.8729 144.396 31.9391 144.347 31.9963C144.297 32.0534 144.237 32.1002 144.17 32.1342C144.102 32.1681 144.029 32.1884 143.954 32.1939L133.415 32.9687C133.401 32.9699 133.386 32.9704 133.372 32.9704Z" fill="#1E1E1E"/>
<path d="M143.912 35.9222H133.373C133.221 35.9222 133.074 35.8617 132.967 35.7539C132.859 35.6461 132.798 35.4999 132.798 35.3475C132.798 35.195 132.859 35.0488 132.967 34.941C133.074 34.8333 133.221 34.7727 133.373 34.7727H143.912C144.064 34.7727 144.21 34.8333 144.318 34.941C144.426 35.0488 144.486 35.195 144.486 35.3475C144.486 35.4999 144.426 35.6461 144.318 35.7539C144.21 35.8617 144.064 35.9222 143.912 35.9222Z" fill="#1E1E1E"/>
<path d="M143.912 39.6486H133.373C133.221 39.6486 133.074 39.588 132.967 39.4802C132.859 39.3725 132.798 39.2263 132.798 39.0738C132.798 38.9214 132.859 38.7752 132.967 38.6674C133.074 38.5596 133.221 38.4991 133.373 38.4991H143.912C144.064 38.4991 144.21 38.5596 144.318 38.6674C144.426 38.7752 144.486 38.9214 144.486 39.0738C144.486 39.2263 144.426 39.3725 144.318 39.4802C144.21 39.588 144.064 39.6486 143.912 39.6486Z" fill="#1E1E1E"/>
<path d="M143.912 42.153H133.373C133.221 42.153 133.074 42.0925 132.967 41.9847C132.859 41.8769 132.798 41.7307 132.798 41.5783C132.798 41.4258 132.859 41.2796 132.967 41.1719C133.074 41.0641 133.221 41.0035 133.373 41.0035H143.912C144.064 41.0035 144.21 41.0641 144.318 41.1719C144.426 41.2796 144.486 41.4258 144.486 41.5783C144.486 41.7307 144.426 41.8769 144.318 41.9847C144.21 42.0925 144.064 42.153 143.912 42.153Z" fill="#1E1E1E"/>
<path d="M83.4124 104.05C83.26 104.05 83.1138 103.989 83.006 103.881C82.8982 103.773 82.8377 103.627 82.8376 103.475V31.6208C82.8376 31.4684 82.8982 31.3222 83.006 31.2144C83.1138 31.1066 83.26 31.0461 83.4124 31.0461C83.5648 31.0461 83.711 31.1066 83.8188 31.2144C83.9266 31.3222 83.9872 31.4684 83.9872 31.6208V103.475C83.9871 103.627 83.9266 103.773 83.8188 103.881C83.711 103.989 83.5648 104.05 83.4124 104.05Z" fill="#1E1E1E"/>
<path d="M173.85 91.9438H70.9502C70.7978 91.9438 70.6516 91.8833 70.5438 91.7755C70.436 91.6677 70.3755 91.5215 70.3755 91.3691C70.3755 91.2167 70.436 91.0705 70.5438 90.9627C70.6516 90.8549 70.7978 90.7943 70.9502 90.7943H173.85C174.002 90.7943 174.148 90.8549 174.256 90.9627C174.364 91.0705 174.424 91.2167 174.424 91.3691C174.424 91.5215 174.364 91.6677 174.256 91.7755C174.148 91.8833 174.002 91.9438 173.85 91.9438Z" fill="#1E1E1E"/>
<path d="M88.7524 84.9562C88.6485 84.9561 88.5466 84.9278 88.4575 84.8744C88.3684 84.8209 88.2954 84.7444 88.2463 84.6528C88.1973 84.5612 88.174 84.458 88.1789 84.3543C88.1838 84.2505 88.2167 84.15 88.2742 84.0634L98.5998 68.5204C98.6568 68.4367 98.7345 68.3692 98.8254 68.3244C98.9162 68.2797 99.0171 68.2592 99.1182 68.265C99.2195 68.272 99.3171 68.3057 99.4012 68.3627C99.4852 68.4197 99.5527 68.4979 99.5967 68.5894L104.786 79.3826L118.859 51.2562C118.91 51.1513 118.993 51.0648 119.095 51.0085C119.197 50.9521 119.314 50.9286 119.43 50.9413C119.546 50.9527 119.655 50.9989 119.744 51.0738C119.833 51.1488 119.897 51.249 119.928 51.3611L124.9 69.4922L129.199 61.8933C129.251 61.8003 129.329 61.7237 129.423 61.6723C129.516 61.6209 129.623 61.5967 129.729 61.6023C129.836 61.6079 129.939 61.6432 130.027 61.7042C130.115 61.7652 130.184 61.8494 130.226 61.9475L136.055 75.3835L140.195 63.7601C140.232 63.6583 140.296 63.5687 140.381 63.5017C140.465 63.4348 140.568 63.3931 140.675 63.3816C140.783 63.3691 140.891 63.3877 140.989 63.4351C141.086 63.4824 141.168 63.5567 141.224 63.649L145.311 70.2115L159.806 41.3206C159.856 41.2204 159.934 41.137 160.032 41.0808C160.129 41.0246 160.24 40.998 160.352 41.0043C160.464 41.0106 160.571 41.0495 160.662 41.1163C160.752 41.183 160.82 41.2746 160.859 41.3798L163.621 48.887L173.342 30.6576C173.378 30.5911 173.426 30.5321 173.485 30.4842C173.543 30.4362 173.61 30.4003 173.682 30.3783C173.755 30.3563 173.83 30.3488 173.906 30.3561C173.981 30.3635 174.054 30.3856 174.12 30.4211C174.187 30.4566 174.246 30.5049 174.294 30.5632C174.342 30.6215 174.378 30.6887 174.4 30.7609C174.421 30.8331 174.429 30.909 174.422 30.9841C174.414 31.0592 174.392 31.1322 174.357 31.1988L164.031 50.5599C163.979 50.6577 163.9 50.7384 163.803 50.7921C163.706 50.8458 163.595 50.8703 163.484 50.8627C163.374 50.8551 163.268 50.8157 163.179 50.7491C163.09 50.6826 163.023 50.5918 162.985 50.4878L160.238 43.0222L145.879 71.6431C145.833 71.7344 145.764 71.8119 145.678 71.8675C145.593 71.9231 145.494 71.9549 145.392 71.9597C145.29 71.9628 145.189 71.9396 145.099 71.8923C145.009 71.8449 144.933 71.775 144.878 71.6894L140.878 65.2677L136.649 77.1417C136.61 77.2503 136.54 77.3449 136.447 77.4129C136.354 77.481 136.242 77.5195 136.127 77.5233C136.012 77.5272 135.898 77.4963 135.801 77.4346C135.703 77.373 135.626 77.2834 135.58 77.1776L129.631 63.4638L125.215 71.2709C125.159 71.37 125.074 71.4502 124.973 71.5013C124.871 71.5525 124.757 71.5723 124.644 71.5583C124.531 71.5443 124.424 71.4971 124.338 71.4227C124.252 71.3482 124.19 71.2499 124.16 71.1402L119.216 53.1123L105.289 80.9446C105.238 81.0382 105.163 81.1167 105.072 81.1724C104.981 81.2282 104.877 81.2592 104.771 81.2623C104.663 81.2615 104.558 81.2305 104.467 81.1729C104.377 81.1153 104.304 81.0334 104.257 80.9365L98.9983 69.9979L89.2317 84.6993C89.1793 84.7784 89.1081 84.8433 89.0244 84.8881C88.9408 84.9329 88.8473 84.9563 88.7524 84.9562Z" fill="#1E1E1E"/>
<path d="M73.4427 76.3907C73.2902 76.3907 73.1441 76.3302 73.0363 76.2224C72.9285 76.1146 72.8679 75.9684 72.8679 75.816V41.5783C72.8679 41.4258 72.9285 41.2796 73.0363 41.1719C73.144 41.0641 73.2902 41.0035 73.4427 41.0035C73.5951 41.0035 73.7413 41.0641 73.8491 41.1719C73.9569 41.2796 74.0174 41.4258 74.0174 41.5783V75.8159C74.0174 75.9684 73.9569 76.1146 73.8491 76.2224C73.7413 76.3302 73.5951 76.3907 73.4427 76.3907Z" fill="#1E1E1E"/>
<path d="M151.419 100.935H151.41L97.6463 100.177C97.4938 100.175 97.3485 100.112 97.2422 100.003C97.136 99.8939 97.0775 99.7468 97.0796 99.5944C97.084 99.4427 97.1473 99.2987 97.2562 99.1929C97.365 99.0871 97.5108 99.0279 97.6625 99.0278L151.426 99.7852C151.578 99.7873 151.723 99.8493 151.829 99.9577C151.935 100.066 151.994 100.212 151.993 100.364C151.992 100.516 151.931 100.661 151.824 100.768C151.716 100.875 151.57 100.935 151.419 100.935Z" fill="#1E1E1E"/>
<path d="M142.692 116.673H102.757C102.082 116.673 101.534 117.221 101.534 117.896V121.236C101.534 121.911 102.082 122.459 102.757 122.459H142.692C143.367 122.459 143.915 121.911 143.915 121.236V117.896C143.915 117.221 143.367 116.673 142.692 116.673Z" fill="#DC8758"/>
<path d="M15.2693 129.322C16.5601 130.325 18.8342 132.706 18.8956 134.493C18.8956 134.493 23.075 129.948 21.8868 126.062C21.1829 124.61 20.015 123.433 18.5678 122.719C18.5678 122.719 20.2067 121.8 21.9276 124.056C21.9276 124.056 21.3131 117.955 12.811 120.17C12.811 120.17 9.492 113.4 2.91574 119.794C2.91574 119.794 7.34092 119.23 6.48046 120.609C4.87848 121.059 3.3791 121.816 2.06546 122.837C1.62485 123.228 1.26653 123.702 1.01147 124.232C0.756423 124.762 0.60977 125.338 0.580104 125.926C0.477739 127.577 0.320685 130.843 0.641654 130.889C1.0718 130.951 3.8991 128.381 5.80442 128.569C7.70974 128.757 1.44059 134.399 1.44059 134.399C1.44059 134.399 2.73137 139.288 3.28456 139.225C3.83759 139.163 5.84544 137.763 5.02583 139.225L3.61232 140.354L5.45614 142.903L10.0862 140.855C10.0862 140.855 8.03753 135.256 9.92234 136.781C9.92234 136.781 11.3563 138.682 11.3768 140.103C11.3768 140.103 17.5741 137.408 16.9596 135.558C16.2905 133.843 15.508 132.173 14.6173 130.561C14.4679 130.289 14.3805 129.987 14.3612 129.677C14.3407 129.207 14.4635 128.695 15.2693 129.322ZM14.5079 122.83C15.0884 122.43 16.5157 122.688 17.0518 123.993C17.6255 125.39 17.6014 126.947 17.0211 127.347C16.4406 127.748 14.7913 127.225 14.3782 125.874C13.9207 124.37 13.9275 123.231 14.5079 122.83Z" fill="#8B9D36"/>
<path d="M12.8108 120.17C12.1499 120.922 11.5389 121.716 10.9817 122.548C10.4549 123.394 10.0203 124.294 9.68544 125.232C9.35319 126.173 9.06825 127.13 8.83168 128.1C8.58441 129.072 8.34821 130.042 8.15129 131.023C7.94265 132.001 7.76033 132.985 7.61105 133.973C7.45732 134.961 7.36885 135.955 7.24743 136.955C7.01187 138.962 6.41313 140.91 5.48047 142.703C5.87802 141.784 6.20609 140.836 6.46192 139.867C6.72722 138.906 6.9019 137.921 6.98367 136.927C7.1312 134.919 7.4086 132.924 7.81413 130.953C8.02254 129.968 8.27094 128.991 8.52849 128.021C8.77107 127.042 9.07514 126.078 9.43889 125.137C9.80805 124.195 10.2785 123.295 10.8419 122.455C11.4395 121.644 12.0976 120.88 12.8108 120.17Z" fill="#5E7C24"/>
<path d="M10.3972 123.355C9.72106 123.498 9.05618 123.689 8.40778 123.928C7.7612 124.163 7.12211 124.418 6.50188 124.716C5.24403 125.278 4.05096 125.968 2.8335 126.647C3.09931 126.422 3.37678 126.211 3.65197 125.996C3.94006 125.8 4.22374 125.596 4.51866 125.409C5.11173 125.038 5.72592 124.702 6.3581 124.403C6.99698 124.115 7.65519 123.872 8.32792 123.676C9.00006 123.477 9.69612 123.368 10.3972 123.355Z" fill="#5E7C24"/>
<path d="M7.59591 133.049C7.11976 133.419 6.62407 133.721 6.14 134.036C5.89742 134.192 5.66051 134.353 5.42927 134.518C5.19073 134.677 4.98991 134.886 4.84106 135.13C4.87373 134.819 5.01903 134.53 5.24963 134.318C5.46242 134.103 5.69823 133.911 5.95282 133.747C6.45494 133.419 7.01127 133.183 7.59591 133.049Z" fill="#5E7C24"/>
<path d="M8.54541 128.585C9.10654 129.11 9.6299 129.675 10.1116 130.274C10.5969 130.872 11.047 131.498 11.4594 132.149C11.8697 132.804 12.2218 133.495 12.5116 134.212C12.8107 134.927 12.9746 135.692 12.9951 136.467C12.8456 135.722 12.6012 134.999 12.2678 134.316C11.9472 133.63 11.5794 132.966 11.167 132.331C10.7806 131.677 10.3404 131.056 9.90143 130.434C9.461 129.812 9.00621 129.199 8.54541 128.585Z" fill="#5E7C24"/>
<path d="M2.87476 148.168L4.59567 149.756C4.59567 149.756 6.2756 147.98 6.45998 149.213C6.45998 149.213 6.19365 150.446 5.86586 150.55C5.86586 150.55 9.98375 153.862 10.8135 151.135C11.147 149.915 11.5681 148.721 12.0734 147.562C12.0734 147.562 12.9953 148.064 12.1964 152.013C12.1964 152.013 15.3832 151.076 16.5667 149.358C16.7026 149.155 16.7751 148.917 16.7749 148.673C16.7863 147.69 16.9157 144.926 18.0352 145.964C18.0352 145.964 18.6805 146.277 18.1888 148.377C18.1888 148.377 20.7824 145.453 19.5505 143.656C19.307 143.319 18.9545 143.077 18.5527 142.971C18.151 142.865 17.725 142.902 17.3471 143.075C16.6269 143.387 15.2905 143.963 12.811 145.024C9.61883 146.419 6.28829 147.473 2.87476 148.168Z" fill="#8B9D36"/>
<path d="M8.54541 150.592C8.70486 149.689 8.99001 148.812 9.39257 147.988C9.59122 147.569 9.83522 147.174 10.1202 146.809C10.2654 146.623 10.4333 146.456 10.62 146.313C10.8053 146.163 11.0362 146.08 11.2747 146.079C10.8679 146.255 10.5363 146.569 10.3384 146.966C10.1047 147.345 9.89226 147.736 9.70219 148.139C9.30655 148.943 8.95417 149.772 8.54541 150.592Z" fill="#5E7C24"/>
<path d="M14.1427 149.296C14.0957 148.487 14.1692 147.676 14.3609 146.889C14.4564 146.491 14.5912 146.104 14.7632 145.733C14.9214 145.346 15.2088 145.025 15.5768 144.825C15.3107 145.113 15.117 145.46 15.0116 145.837C14.8915 146.209 14.7883 146.587 14.6958 146.97C14.5092 147.737 14.3544 148.514 14.1427 149.296Z" fill="#5E7C24"/>
<path d="M42.7834 120.83C42.7834 120.83 38.6451 121.423 42.3327 124.349C42.3327 124.349 43.2751 125.143 46.3482 126.062C46.3482 126.062 48.274 117.687 42.7834 120.83Z" fill="#5E7C24"/>
<path d="M46.3482 126.062C46.2716 125.788 46.2214 125.513 46.1524 125.243C46.0662 124.977 46.004 124.707 45.9097 124.448C45.7324 123.93 45.5005 123.433 45.2178 122.964C44.9297 122.502 44.5785 122.083 44.1744 121.719C43.7638 121.347 43.2936 121.046 42.7834 120.83C43.3515 120.924 43.8873 121.158 44.3435 121.509C44.8071 121.859 45.2027 122.29 45.5104 122.782C45.8074 123.276 46.0287 123.812 46.1668 124.372C46.2419 124.648 46.2701 124.934 46.3177 125.213C46.3316 125.498 46.3489 125.78 46.3482 126.062Z" fill="#50661A"/>
<path d="M37.5313 103.908C37.5313 103.908 42.1194 100.985 43.4936 107.476C43.4936 107.476 41.1125 105.426 41.081 106.612C41.8522 107.515 42.439 108.56 42.8081 109.689C43.022 110.53 42.9031 111.422 42.4762 112.177C41.893 113.239 40.7147 115.323 40.5076 115.229C40.2304 115.103 39.57 112.423 38.3769 111.808C37.1839 111.193 38.6705 117.099 38.6705 117.099C38.6705 117.099 36.0071 119.635 35.7064 119.383C35.4058 119.132 34.7707 117.494 34.6827 118.715L35.0742 119.957L32.9974 120.83L31.074 117.782C31.074 117.782 34.4596 115.096 32.7576 115.318C32.7576 115.318 31.174 115.946 30.6084 116.819C30.6084 116.819 28.0162 112.768 29.0978 111.857C30.1543 111.055 31.2618 110.322 32.4132 109.662C32.6454 109.53 32.8397 109.341 32.9773 109.112C33.1298 108.849 33.1595 108.569 32.521 108.639C31.3717 108.765 29.1072 109.369 28.3751 110.453C28.3751 110.453 27.6893 106.03 29.9017 104.076C30.8656 103.452 32.0115 103.171 33.1548 103.278C33.1548 103.278 32.5497 102.078 30.6591 102.817C30.6591 102.817 33.3972 99.2695 37.5313 103.908Z" fill="#5E7C24"/>
<path d="M39.5874 111.175C39.213 110.262 38.8616 109.358 38.4346 108.495C38.2249 108.067 37.9764 107.66 37.6922 107.277C37.4253 106.879 37.0167 106.596 36.5493 106.488C36.8053 106.48 37.0598 106.531 37.2929 106.637C37.5261 106.743 37.7317 106.901 37.8938 107.099C38.2343 107.471 38.5201 107.889 38.7427 108.341C39.1808 109.231 39.4663 110.189 39.5874 111.175Z" fill="#50661A"/>
<path d="M30.1633 113.358C30.3972 112.852 30.6917 112.375 31.0403 111.94C31.3846 111.494 31.7846 111.095 32.2305 110.751C32.6785 110.396 33.1917 110.133 33.741 109.975C34.2917 109.829 34.8732 109.848 35.4133 110.029C34.8743 109.983 34.3315 110.052 33.8212 110.232C33.3235 110.425 32.8578 110.692 32.4399 111.024C32.0109 111.354 31.6105 111.718 31.2431 112.115C30.8717 112.513 30.5066 112.923 30.1633 113.358Z" fill="#50661A"/>
<path d="M34.4658 104.499C34.6348 104.273 34.8471 104.083 35.0904 103.94C35.3336 103.798 35.6028 103.705 35.8824 103.667C36.163 103.623 36.448 103.615 36.7305 103.644C37.0121 103.676 37.2901 103.733 37.5615 103.815L37.6624 103.843L37.6212 103.947C37.0852 105.301 36.6298 106.692 36.1801 108.08C35.74 109.471 35.3436 110.877 34.9555 112.284C34.5823 113.696 34.233 115.114 33.9076 116.538C33.5802 117.962 33.2922 119.395 32.9976 120.83C33.1776 119.377 33.394 117.927 33.6776 116.49C33.9355 115.047 34.2857 113.623 34.641 112.201C34.9994 110.78 35.4251 109.376 35.8833 107.983C36.3388 106.589 36.8491 105.215 37.4417 103.869L37.5013 104.001L37.1098 103.885C36.9765 103.86 36.8441 103.826 36.7101 103.804C36.4415 103.761 36.1685 103.752 35.8977 103.778C35.3451 103.824 34.8319 104.083 34.4658 104.499Z" fill="#50661A"/>
<path d="M35.8838 117.046C35.7505 116.546 35.5663 116.06 35.3342 115.597C35.2259 115.389 35.0634 115.214 34.864 115.091C34.6335 114.988 34.382 114.941 34.1299 114.954C34.2549 114.88 34.3934 114.832 34.5373 114.813C34.6812 114.794 34.8275 114.804 34.9675 114.842C35.2524 114.949 35.4886 115.156 35.632 115.424C35.9014 115.919 35.9904 116.493 35.8838 117.046Z" fill="#50661A"/>
<path d="M20.5754 150.592C20.5754 150.592 19.7598 147.776 17.6893 149.368C16.9855 149.927 16.482 150.7 16.2545 151.569C15.8811 152.917 15.5583 155.359 16.478 158.824C16.478 158.824 18.5976 155.892 20.1657 154.854C21.9341 153.684 23.0748 151.01 20.5754 150.592Z" fill="#C4CE6E"/>
<path d="M20.5752 150.592C20.2638 150.822 19.9921 151.101 19.771 151.419C19.5369 151.725 19.325 152.047 19.1368 152.383C18.7535 153.053 18.4126 153.747 18.1162 154.46C17.8035 155.167 17.5338 155.894 17.266 156.623L16.4778 158.824C16.5451 158.439 16.6342 158.059 16.712 157.675C16.802 157.294 16.9139 156.919 17.0141 156.54C17.2317 155.788 17.5073 155.053 17.7998 154.324C18.1142 153.601 18.4866 152.905 18.9131 152.243C19.3196 151.562 19.8912 150.994 20.5752 150.592Z" fill="#8B9D36"/>
<path d="M23.5636 111.481C23.5636 111.481 23.6327 108.546 21.1837 109.415C20.3459 109.727 19.6339 110.306 19.1568 111.062C18.3966 112.228 17.3561 114.452 17.1909 118.038C17.1909 118.038 20.0893 115.909 21.8936 115.411C23.9284 114.849 25.8174 112.66 23.5636 111.481Z" fill="#8B9D36"/>
<path d="M23.5636 111.481C23.1983 111.603 22.8555 111.784 22.5493 112.017C22.2344 112.235 21.9357 112.476 21.6555 112.737C21.0891 113.255 20.5562 113.809 20.06 114.395C19.5499 114.971 19.0751 115.579 18.6015 116.189L17.1909 118.038C17.3705 117.693 17.5694 117.359 17.7586 117.018C17.9584 116.684 18.1775 116.363 18.3865 116.034C18.826 115.389 19.2977 114.767 19.7998 114.169C20.3162 113.58 20.8799 113.033 21.4853 112.535C22.0772 112.013 22.7925 111.65 23.5636 111.481Z" fill="#5E7C24"/>
<path d="M42.0474 150.592C42.0474 150.592 42.863 147.776 44.9335 149.368C45.6373 149.927 46.1408 150.7 46.3683 151.569C46.7417 152.917 47.0645 155.359 46.1448 158.824C46.1448 158.824 44.0252 155.892 42.4571 154.854C40.6887 153.684 39.548 151.01 42.0474 150.592Z" fill="#8B9D36"/>
<path d="M42.0471 150.592C42.7311 150.994 43.3027 151.562 43.7092 152.243C44.1357 152.905 44.508 153.601 44.8225 154.324C45.1212 155.049 45.3834 155.789 45.6082 156.54C45.7083 156.919 45.8203 157.294 45.9103 157.675C45.9881 158.059 46.0772 158.439 46.1445 158.824L45.3562 156.623C45.0884 155.894 44.8188 155.167 44.506 154.46C44.2096 153.747 43.8687 153.053 43.4854 152.383C43.2973 152.047 43.0853 151.725 42.8512 151.419C42.6301 151.101 42.3585 150.822 42.0471 150.592Z" fill="#5E7C24"/>
<path d="M42.7831 120.83C42.7831 120.83 32.474 112.021 29.8025 163.484" stroke="#50661A" stroke-width="0.64428" stroke-miterlimit="10"/>
<path d="M32.9975 120.83C32.9975 120.83 27.8689 154.771 30.9419 163.484" stroke="#50661A" stroke-width="0.64428" stroke-miterlimit="10"/>
<path d="M28.9867 163.484C28.9867 163.484 25.1753 148.189 20.5754 150.592" stroke="#50661A" stroke-width="0.64428" stroke-miterlimit="10"/>
<path d="M29.5346 158.923C29.5346 158.923 32.8563 102.097 23.564 111.481" stroke="#50661A" stroke-width="0.64428" stroke-miterlimit="10"/>
<path d="M33.6362 163.484C33.6362 163.484 37.4476 148.189 42.0474 150.592" stroke="#50661A" stroke-width="0.64428" stroke-miterlimit="10"/>
<path d="M19.2615 143.335C19.2615 143.335 26.4761 141.566 30.4096 163.128" stroke="#50661A" stroke-width="0.64428" stroke-miterlimit="10"/>
<path d="M21.6377 129.975C21.6377 129.975 23.7279 131.369 31.6372 163.128" stroke="#50661A" stroke-width="0.64428" stroke-miterlimit="10"/>
<path d="M41.394 137.18C41.394 137.18 33.5819 149.547 32.856 163.484" stroke="#50661A" stroke-width="0.64428" stroke-miterlimit="10"/>
<path d="M20.6163 159.833V162.695C20.6137 162.958 20.7157 163.211 20.8998 163.399C21.0839 163.587 21.3351 163.694 21.5981 163.696H41.2688C41.5317 163.694 41.7829 163.587 41.967 163.399C42.1511 163.211 42.2531 162.958 42.2506 162.695V160.058C42.2531 159.797 42.1525 159.545 41.9708 159.358C41.7891 159.17 41.5408 159.062 41.2798 159.057L21.609 158.832C21.4779 158.832 21.348 158.858 21.2269 158.908C21.1058 158.958 20.996 159.032 20.9036 159.125C20.8113 159.219 20.7383 159.329 20.689 159.451C20.6397 159.572 20.615 159.702 20.6163 159.833Z" fill="#9857BD"/>
<path d="M21.5552 163.696L22.2547 178.465H40.1492L41.3117 163.696H21.5552Z" fill="#CB97E7"/>
<path d="M38.1734 136.338C38.2007 134.991 40.987 137.435 40.987 137.435C39.3274 129.987 34.0248 133.093 34.0248 133.093C29.1761 127.619 26.028 131.522 26.028 131.522C28.2166 130.774 28.9304 132.167 28.9304 132.167C27.6238 131.983 26.2935 132.248 25.1572 132.919C22.6067 135.036 23.4433 140.099 23.4433 140.099C24.2833 138.902 26.9123 138.323 28.244 138.233C29.0806 138.177 28.9337 138.588 28.7084 138.902C28.5573 139.105 28.3624 139.271 28.1383 139.389C26.8067 140.083 25.5233 140.866 24.2969 141.733C23.0472 142.715 26.0997 147.447 26.0997 147.447C26.7484 146.483 28.5821 145.842 28.5821 145.842C30.5591 145.671 26.6494 148.565 26.6494 148.565L28.9132 152.124L31.3205 151.229L30.8527 149.798C30.9449 148.412 31.6961 150.306 32.0477 150.606C32.3994 150.909 35.4724 148.151 35.4724 148.151C35.4724 148.151 33.6901 141.36 35.0798 142.119C36.4729 142.875 37.265 145.953 37.5895 146.11C37.8319 146.228 39.1807 143.913 39.8499 142.732C40.0923 142.311 40.2491 141.845 40.3112 141.363C40.3733 140.881 40.3396 140.391 40.2119 139.922C39.7648 138.609 39.0731 137.393 38.1734 136.338ZM30.3985 136.283C29.5107 137.018 28.1449 136.61 27.9265 136.063C27.7044 135.52 28.384 134.437 29.4015 133.748C30.3542 133.1 31.4502 133.584 31.6688 134.131C31.8907 134.674 31.3854 135.461 30.3985 136.283Z" fill="#5E7C24"/>
<path d="M34.0243 133.093C34.201 133.905 34.3165 134.729 34.37 135.558C34.3864 136.393 34.3121 137.229 34.1484 138.048C33.9816 138.865 33.762 139.669 33.4908 140.457C33.2347 141.244 32.9695 142.032 32.6729 142.808C32.0685 144.355 31.3624 145.86 30.5593 147.314C30.1673 148.036 29.8441 148.793 29.594 149.576C29.333 150.36 29.13 151.161 28.9866 151.974C29.1343 150.312 29.5872 148.692 30.3228 147.194C31.0854 145.731 31.7628 144.225 32.3517 142.684C32.6555 141.918 32.9278 141.141 33.1935 140.358C33.4612 139.577 33.7018 138.792 33.89 137.994C34.0803 137.196 34.1849 136.38 34.2019 135.56C34.194 134.735 34.1347 133.911 34.0243 133.093Z" fill="#50661A"/>
<path d="M34.2581 136.402C34.7436 136.729 35.1811 137.122 35.5578 137.571C35.9392 138.014 36.2848 138.487 36.5915 138.985C36.8962 139.482 37.1667 140 37.4009 140.534C37.6352 141.067 37.829 141.617 37.9807 142.179L37.1593 140.653C36.8797 140.151 36.6023 139.65 36.2982 139.165C35.9993 138.678 35.6826 138.202 35.3483 137.738C35.0139 137.27 34.6497 136.824 34.2581 136.402Z" fill="#50661A"/>
<path d="M31.8484 144.362C32.208 144.711 32.4951 145.128 32.6932 145.589C32.795 145.821 32.8696 146.064 32.9155 146.314C32.9763 146.57 32.9388 146.841 32.8102 147.071C32.8054 146.833 32.7527 146.599 32.6554 146.383C32.5663 146.164 32.4745 145.946 32.3774 145.727C32.1718 145.284 31.995 144.828 31.8484 144.362Z" fill="#50661A"/>
<path d="M33.1924 140.854L31.4423 141.516C30.8644 141.743 30.289 141.974 29.7292 142.234C29.1653 142.483 28.6169 142.765 28.0871 143.08C27.5514 143.39 27.0564 143.766 26.6135 144.199C26.9638 143.669 27.4141 143.213 27.9391 142.855C28.4559 142.49 29.0078 142.177 29.5867 141.921C30.7332 141.399 31.9468 141.04 33.1924 140.854Z" fill="#50661A"/>
<path d="M50.5376 127.918C50.5376 127.918 54.5347 121.947 59.5336 128.998C59.5336 128.998 55.6186 127.817 56.1926 129.257C57.5844 129.927 58.8289 130.867 59.8535 132.022C60.5461 132.923 60.8635 134.057 60.7393 135.186C60.5873 136.773 60.2493 139.907 59.9521 139.905C59.5541 139.903 57.3787 137.042 55.6295 136.944C53.8803 136.846 58.7125 143.135 58.7125 143.135C58.7125 143.135 56.8253 147.608 56.3348 147.468C55.8442 147.328 54.2365 145.703 54.7613 147.216L55.8722 148.496L53.8304 150.658L49.949 148.033C49.949 148.033 52.6258 142.993 50.6979 144.173C50.6979 144.173 49.1218 145.777 48.8937 147.128C48.8937 147.128 43.6918 143.658 44.5198 141.984C45.3718 140.457 46.3205 138.985 47.36 137.578C47.5695 137.297 47.7057 136.969 47.7564 136.622C47.8083 136.219 47.7059 135.853 46.9667 136.285C45.6526 137.053 43.2467 138.993 42.9277 140.687C42.9277 140.687 39.8218 135.747 41.4685 132.215C42.3004 130.952 43.5287 130.001 44.9602 129.511C44.9602 129.511 43.615 128.397 41.7273 130.297C41.7273 130.297 43.1824 124.571 50.5376 127.918Z" fill="#C4CE6E"/>
<path d="M50.5378 127.918C51.2365 129.717 51.8141 131.56 52.2667 133.435C52.7356 135.307 53.0985 137.205 53.3827 139.114C53.6589 141.025 53.8378 142.948 53.9186 144.877C54.0018 146.804 53.9725 148.734 53.8306 150.658C53.8154 148.731 53.8057 146.808 53.6538 144.891C53.5323 142.974 53.3283 141.065 53.0418 139.164C52.7874 137.26 52.4214 135.372 52.0096 133.495C51.5955 131.619 51.1178 129.755 50.5378 127.918Z" fill="#8B9D36"/>
<path d="M51.536 131.096C51.2126 131.499 50.9236 131.928 50.6722 132.378C50.4211 132.824 50.1947 133.283 49.9941 133.753C49.7927 134.223 49.6174 134.705 49.455 135.193C49.2944 135.682 49.1507 136.179 48.9978 136.681C49.0138 136.156 49.08 135.634 49.1956 135.121C49.3113 134.607 49.4724 134.103 49.6772 133.617C49.8861 133.131 50.1438 132.668 50.4463 132.234C50.7432 131.796 51.1116 131.412 51.536 131.096Z" fill="#8B9D36"/>
<path d="M53.1987 139.005C53.7281 139.124 54.2272 139.351 54.6649 139.672C55.1027 139.992 55.4697 140.4 55.743 140.868C55.9258 141.179 56.0556 141.517 56.1269 141.87C55.7609 141.286 55.3273 140.747 54.8352 140.265C54.3357 139.788 53.7872 139.366 53.1987 139.005Z" fill="#8B9D36"/>
<path d="M221.643 165.703L222.275 172.01L211.323 177.361H228.141V165.703H221.643Z" fill="#F9977A"/>
<path d="M203.594 165.703L204.226 172.01L193.274 177.361H210.091V165.703H203.594Z" fill="#F9977A"/>
<path d="M220.762 168.94H228.169C228.367 168.94 228.564 168.901 228.747 168.825C228.93 168.749 229.097 168.638 229.237 168.497C229.377 168.357 229.488 168.191 229.564 168.008C229.64 167.824 229.679 167.628 229.679 167.43V141.089C229.679 135.942 229.1 130.811 227.953 125.793C227.748 124.894 227.666 123.971 227.71 123.049C228.033 116.266 229.239 86.5205 225.857 81.1098L204.226 79.5128L219.273 167.684C219.333 168.035 219.515 168.354 219.788 168.584C220.06 168.814 220.405 168.94 220.762 168.94Z" fill="#C67A56"/>
<path d="M197.183 78.3914C197.183 78.3914 196.045 96.801 196.045 101.129V126.669C196.045 127.721 196.097 128.771 196.2 129.819L199.988 168.225C200.025 168.598 200.199 168.944 200.477 169.196C200.754 169.448 201.116 169.587 201.491 169.587H210.219C210.427 169.587 210.632 169.544 210.822 169.461C211.012 169.378 211.184 169.257 211.325 169.105C211.466 168.953 211.575 168.774 211.644 168.578C211.713 168.382 211.74 168.174 211.725 167.967L209.367 135.542C209.15 132.562 209.351 129.567 209.962 126.643L219.487 81.1098L197.183 78.3914Z" fill="#C67A56"/>
<path d="M180.42 49.3323C180.42 49.3323 180.341 47.2548 177.146 43.9654C173.951 40.6761 171.086 38.428 172.75 41.1997L174.052 43.2908C174.052 43.2908 170.615 41.9578 168.637 40.9844C168.116 40.7179 167.523 40.6256 166.947 40.7212C166.37 40.8167 165.838 41.095 165.432 41.5151C164.686 42.319 164.709 43.1978 166.765 44.7573C168.661 46.2667 170.757 47.5057 172.994 48.4387C173.315 48.5622 173.586 48.7887 173.765 49.0826L176.063 50.953L180.42 49.3323Z" fill="#F9977A"/>
<path d="M176.063 44.2616C175.697 44.1763 175.343 44.0474 175.007 43.8777C174.67 43.7151 174.35 43.5185 174.052 43.2907C174.242 43.3098 174.429 43.351 174.61 43.4136C174.789 43.4716 174.963 43.5425 175.131 43.6256C175.473 43.7884 175.787 44.003 176.063 44.2616Z" fill="#DD765E"/>
<path d="M171.315 43.6251C170.879 43.4782 170.452 43.3056 170.036 43.1082C169.617 42.9181 169.212 42.7017 168.812 42.473C168.412 42.2438 168.027 41.9911 167.657 41.7162C167.282 41.4461 166.937 41.1357 166.63 40.7906C167.384 41.3168 168.164 41.7735 168.953 42.2301C169.739 42.6915 170.535 43.1339 171.315 43.6251Z" fill="#DD765E"/>
<path d="M170.461 44.6838C169.976 44.5485 169.499 44.3807 169.036 44.1814C168.57 43.9867 168.117 43.7646 167.677 43.516C167.233 43.27 166.812 42.9847 166.419 42.6637C166.012 42.356 165.675 41.9643 165.432 41.5151C165.755 41.8927 166.132 42.2215 166.55 42.4914C166.96 42.7682 167.38 43.0317 167.816 43.2718C168.679 43.766 169.572 44.2108 170.461 44.6838Z" fill="#DD765E"/>
<path d="M169.432 45.4777C169.022 45.3753 168.621 45.2412 168.233 45.0769C167.842 44.9167 167.462 44.7338 167.093 44.5291C166.345 44.1296 165.67 43.6065 165.097 42.9818C165.451 43.2139 165.796 43.4449 166.151 43.6604C166.51 43.87 166.865 44.0848 167.229 44.2838L169.432 45.4777Z" fill="#DD765E"/>
<path d="M205.346 38.7815C205.346 38.7815 203.615 39.5553 202.274 40.2432C200.414 41.1966 197.526 44.547 194.147 52.9151L191.901 58.476C191.901 58.476 185.159 50.6065 179.327 45.6156L173.571 50.2865L186.894 65.6336C187.756 66.8661 188.901 67.8742 190.232 68.5735C193.274 70.128 196.381 69.6155 198.086 66.454C200.753 61.5086 203.925 53.9791 204.228 51.881L205.346 38.7815Z" fill="#2B9D8A"/>
<path d="M191.922 58.5755C191.83 59.4549 191.682 60.2825 191.647 61.1109C191.618 61.5193 191.629 61.9295 191.679 62.3359C191.735 62.7518 191.856 63.1563 192.037 63.5347C191.671 63.2575 191.403 62.8707 191.272 62.4306C191.137 61.9951 191.083 61.5385 191.113 61.0835C191.137 60.6377 191.219 60.1969 191.357 59.7722C191.484 59.3471 191.675 58.9437 191.922 58.5755Z" fill="#0D5246"/>
<path d="M217.795 84.678C217.795 84.678 217.795 93.7807 227.839 91.3989L227.284 83.2049L217.795 84.678Z" fill="#A3862B"/>
<path d="M191.587 177.934V177.896C191.587 177.601 191.669 177.312 191.823 177.06C191.978 176.809 192.199 176.606 192.463 176.473L203.83 170.745C203.941 170.689 204.068 170.673 204.19 170.702C204.311 170.73 204.418 170.8 204.493 170.9L206.715 173.857C206.794 173.962 206.909 174.034 207.038 174.059C207.166 174.084 207.3 174.061 207.413 173.993L210.02 172.429C210.101 172.38 210.193 172.354 210.287 172.353C210.381 172.352 210.473 172.376 210.555 172.422C210.637 172.468 210.705 172.535 210.752 172.616C210.799 172.698 210.824 172.79 210.824 172.884V177.934C210.824 178.075 210.768 178.21 210.669 178.309C210.569 178.409 210.434 178.465 210.294 178.465H192.118C191.977 178.465 191.842 178.409 191.742 178.309C191.643 178.21 191.587 178.075 191.587 177.934Z" fill="#5D1115"/>
<path d="M209.635 177.934V177.896C209.635 177.601 209.717 177.312 209.872 177.06C210.026 176.809 210.248 176.606 210.511 176.473L221.878 170.745C221.989 170.689 222.117 170.673 222.238 170.702C222.359 170.73 222.467 170.8 222.541 170.9L224.763 173.857C224.842 173.962 224.957 174.034 225.086 174.059C225.215 174.084 225.348 174.061 225.461 173.993L228.069 172.429C228.149 172.38 228.241 172.354 228.335 172.353C228.429 172.352 228.522 172.376 228.603 172.422C228.685 172.468 228.753 172.535 228.8 172.616C228.848 172.698 228.873 172.79 228.873 172.884V177.934C228.873 178.075 228.817 178.21 228.717 178.309C228.618 178.409 228.483 178.465 228.342 178.465H210.166C210.025 178.465 209.89 178.409 209.791 178.309C209.691 178.21 209.635 178.075 209.635 177.934Z" fill="#5D1115"/>
<path d="M212.224 17.3116C210.688 17.0778 209.119 17.2123 207.646 17.7039C206.956 17.9488 204.43 18.8442 203.199 21.2353C202.732 22.1434 202.626 23.2358 202.414 25.4206C202.282 26.7853 201.757 27.7627 201.758 29.4272C201.785 30.7757 202.006 32.1134 202.414 33.3989C203.027 35.411 202.632 36.5542 202.938 36.9303C204.168 38.4461 206.805 37.0449 206.861 39.0229C206.896 40.2443 206.12 41.0174 207.139 42.1129C208.404 43.4714 213.206 42.9573 214.971 42.0312C215.211 41.9049 218.74 40.0061 218.502 37.8458C218.375 36.6918 217.294 36.5725 216.54 34.8376C216.057 33.6349 215.921 32.3208 216.148 31.0447C216.488 28.5195 217.76 28.2115 218.763 25.159C219.036 24.3927 219.106 23.5692 218.969 22.7677C218.832 21.9661 218.491 21.2133 217.979 20.5813C216.503 18.8503 214.466 17.6929 212.224 17.3116Z" fill="#F9977A"/>
<path d="M202.404 27.9842C202.688 27.9842 202.917 27.6988 202.917 27.3466C202.917 26.9945 202.688 26.709 202.404 26.709C202.121 26.709 201.892 26.9945 201.892 27.3466C201.892 27.6988 202.121 27.9842 202.404 27.9842Z" fill="#0A0709"/>
<path d="M207.778 28.2C208.062 28.2 208.291 27.9145 208.291 27.5624C208.291 27.2102 208.062 26.9247 207.778 26.9247C207.495 26.9247 207.266 27.2102 207.266 27.5624C207.266 27.9145 207.495 28.2 207.778 28.2Z" fill="#0A0709"/>
<path d="M204.829 26.1681C204.898 26.1681 204.964 26.1465 205.019 26.1064C205.075 26.0664 205.116 26.0098 205.137 25.945C205.158 25.8801 205.158 25.8101 205.138 25.7451C205.117 25.6802 205.076 25.6235 205.02 25.5832C204.474 25.1728 203.817 24.9348 203.135 24.8996C202.452 24.8643 201.774 25.0334 201.188 25.3852C201.117 25.4329 201.068 25.507 201.051 25.5912C201.034 25.6754 201.052 25.7628 201.099 25.8341C201.147 25.9055 201.221 25.9549 201.305 25.9716C201.39 25.9883 201.477 25.9708 201.548 25.9231C202.022 25.6383 202.57 25.5034 203.122 25.536C203.673 25.5686 204.202 25.7672 204.639 26.1057C204.694 26.1463 204.761 26.1681 204.829 26.1681Z" fill="#1E1D22"/>
<path d="M210.149 26.4318C210.217 26.4319 210.284 26.4103 210.339 26.3702C210.394 26.3301 210.435 26.2736 210.457 26.2087C210.478 26.1438 210.478 26.0739 210.457 26.0089C210.436 25.9439 210.395 25.8872 210.34 25.847C209.793 25.4366 209.137 25.1986 208.454 25.1633C207.772 25.1279 207.094 25.297 206.508 25.6487C206.437 25.6964 206.387 25.7706 206.37 25.8548C206.354 25.939 206.371 26.0263 206.419 26.0977C206.467 26.169 206.541 26.2184 206.625 26.2351C206.709 26.2518 206.797 26.2343 206.868 26.1866C207.341 25.9017 207.89 25.7667 208.441 25.7994C208.993 25.832 209.522 26.0308 209.958 26.3695C210.013 26.4101 210.08 26.4319 210.149 26.4318Z" fill="#1E1D22"/>
<path d="M205.964 83.632C206.435 83.632 206.818 83.2496 206.818 82.7778C206.818 82.306 206.435 81.9235 205.964 81.9235C205.492 81.9235 205.109 82.306 205.109 82.7778C205.109 83.2496 205.492 83.632 205.964 83.632Z" fill="#5D1115"/>
<path d="M204.748 26.5525C204.882 27.0892 204.837 27.6549 204.62 28.1635C204.425 28.6759 204.16 29.1585 203.831 29.5972C203.664 29.8178 203.419 29.9828 203.436 30.1996C203.464 30.4427 203.588 30.6645 203.78 30.8162C203.995 30.9667 204.237 31.0733 204.492 31.1301C204.748 31.1868 205.013 31.1925 205.271 31.1468C205.007 31.235 204.726 31.2626 204.45 31.2276C204.173 31.1926 203.909 31.0959 203.675 30.9445C203.553 30.8596 203.451 30.7491 203.376 30.6209C203.3 30.4927 203.254 30.3496 203.239 30.2017C203.238 30.0419 203.297 29.8874 203.405 29.7698L203.664 29.4613C203.987 29.0413 204.258 28.5831 204.469 28.0969C204.702 27.6177 204.799 27.0833 204.748 26.5525Z" fill="#DD765E"/>
<path d="M214.22 26.7682C214.417 26.759 214.612 26.793 214.794 26.8676C214.976 26.9422 215.139 27.0558 215.273 27.2002C215.407 27.3402 215.525 27.4961 215.621 27.6646C215.715 27.8327 215.784 28.0128 215.828 28.2C215.613 27.9013 215.377 27.6185 215.121 27.3536C214.998 27.2243 214.861 27.1094 214.711 27.011C214.56 26.9074 214.395 26.8256 214.22 26.7682Z" fill="#DD765E"/>
<path d="M214.637 29.4272C214.438 29.0538 214.368 28.6252 214.438 28.2081C214.508 27.791 214.714 27.4087 215.024 27.1205C214.942 27.3123 214.851 27.4886 214.792 27.6774C214.724 27.8602 214.676 28.0499 214.65 28.2431C214.586 28.6349 214.581 29.0341 214.637 29.4272Z" fill="#DD765E"/>
<path d="M196.947 68.7086C196.747 66.8093 196.69 64.8976 196.777 62.9898C196.828 61.0779 197.067 59.1758 197.492 57.3109C197.451 59.2234 197.383 61.1127 197.311 63.0113C197.228 64.9083 197.147 66.805 196.947 68.7086Z" fill="#0D5246"/>
<path d="M207.405 33.4001C207.405 33.4001 205.386 35.2836 203.58 33.4001H207.405Z" fill="#0A0709"/>
<path d="M209.433 27.4842C208.99 27.2626 208.514 27.1144 208.023 27.0454C207.782 27.0061 207.537 26.998 207.295 27.0212C207.046 27.0418 206.799 27.0817 206.557 27.1408C206.775 27.0027 207.018 26.9064 207.272 26.8568C207.529 26.8063 207.792 26.7978 208.052 26.8319C208.569 26.8993 209.052 27.1274 209.433 27.4842Z" fill="#1E1D22"/>
<path d="M204.152 27.2685C203.709 27.0468 203.232 26.8986 202.742 26.8297C202.501 26.7904 202.256 26.7823 202.013 26.8055C201.765 26.8261 201.518 26.866 201.275 26.9251C201.494 26.787 201.737 26.6907 201.991 26.6411C202.248 26.5905 202.511 26.5821 202.77 26.6162C203.288 26.6836 203.771 26.9118 204.152 27.2685Z" fill="#1E1D22"/>
<path d="M196.903 80.9748C197.958 81.6545 199.098 82.1929 200.293 82.5763C201.477 82.9828 202.686 83.3089 203.913 83.5521C206.367 84.0535 208.859 84.3382 211.363 84.4029C212.612 84.4975 213.867 84.449 215.12 84.4676C216.373 84.4434 217.625 84.3595 218.88 84.3225C220.131 84.2223 221.385 84.14 222.636 84.0249C223.886 83.8949 225.135 83.7464 226.391 83.6321C225.154 83.8664 223.91 84.0667 222.668 84.2853C221.419 84.4537 220.164 84.5826 218.911 84.7331C217.654 84.8354 216.392 84.9048 215.131 84.9546C213.868 84.952 212.604 85.0185 211.34 84.9369C208.809 84.8512 206.292 84.5214 203.824 83.9519C201.383 83.3454 198.906 82.5329 196.903 80.9748Z" fill="#5D1115"/>
<path d="M205.022 83.9991C205.648 87.0283 206.217 90.0672 206.777 93.1076C207.338 96.1479 207.851 99.1961 208.391 102.24C208.888 105.291 209.408 108.338 209.883 111.393L210.586 115.977C210.801 117.508 211.034 119.036 211.233 120.57C210.914 119.057 210.63 117.537 210.327 116.021L209.477 111.462C208.918 108.422 208.402 105.374 207.864 102.33C207.368 99.2782 206.847 96.2313 206.373 93.1762C205.897 90.1214 205.431 87.0652 205.022 83.9991Z" fill="#5D1115"/>
<path d="M200.7 80.215C200.887 80.7648 200.978 81.3428 200.968 81.9235C200.979 82.5042 200.888 83.0825 200.7 83.6321C200.512 83.0825 200.421 82.5042 200.433 81.9235C200.422 81.3428 200.513 80.7648 200.7 80.215Z" fill="#5D1115"/>
<path d="M213.757 81.6079C214.019 82.2211 214.186 82.8702 214.254 83.5335C214.344 84.1942 214.333 84.8647 214.22 85.522C213.958 84.9092 213.79 84.2599 213.723 83.5965C213.634 82.9357 213.645 82.2653 213.757 81.6079Z" fill="#5D1115"/>
<path d="M207.002 84.3155C207.355 85.5159 207.643 86.7346 207.864 87.9662C208.09 89.1933 208.276 90.427 208.411 91.6691L208.425 91.796L208.336 91.8549C207.754 92.244 207.158 92.6161 206.544 92.9635C207.048 92.4691 207.569 91.999 208.104 91.5462L208.029 91.7319C207.758 90.5123 207.538 89.2842 207.358 88.0497C207.172 86.8123 207.053 85.5658 207.002 84.3155Z" fill="#5D1115"/>
<path d="M226.391 104.033C226.369 104.938 226.256 105.839 226.054 106.722C225.862 107.611 225.589 108.481 225.237 109.32C224.888 110.167 224.43 110.965 223.877 111.696C223.323 112.426 222.616 113.027 221.805 113.457C222.474 112.874 223.057 112.2 223.536 111.454C224.006 110.709 224.41 109.926 224.745 109.112C225.089 108.295 225.392 107.462 225.652 106.615C225.912 105.764 226.169 104.908 226.391 104.033Z" fill="#5D1115"/>
<path d="M226.391 110.246C226.241 110.883 226.018 111.5 225.727 112.086C225.442 112.676 225.107 113.24 224.726 113.773C223.98 114.861 222.977 115.749 221.805 116.356C222.265 115.889 222.712 115.441 223.123 114.956C223.528 114.468 223.93 113.98 224.292 113.46C225.037 112.433 225.703 111.353 226.391 110.246Z" fill="#5D1115"/>
<path d="M206.846 135.023C206.823 135.928 206.71 136.829 206.509 137.712C206.317 138.601 206.044 139.47 205.692 140.309C205.342 141.156 204.885 141.955 204.332 142.685C203.778 143.416 203.071 144.017 202.26 144.446C202.929 143.864 203.512 143.189 203.991 142.443C204.461 141.699 204.865 140.915 205.199 140.101C205.544 139.285 205.847 138.451 206.107 137.604C206.367 136.754 206.624 135.897 206.846 135.023Z" fill="#5D1115"/>
<path d="M206.846 141.236C206.696 141.873 206.473 142.49 206.182 143.076C205.896 143.665 205.562 144.229 205.181 144.762C204.435 145.851 203.432 146.738 202.26 147.346C202.72 146.878 203.167 146.431 203.578 145.945C203.983 145.457 204.385 144.97 204.747 144.45C205.492 143.422 206.158 142.343 206.846 141.236Z" fill="#5D1115"/>
<path d="M216.004 91.7006C215.879 92.7507 215.869 93.8113 215.975 94.8636C216.029 95.8767 216.424 96.8419 217.094 97.6033C217.785 98.3049 218.854 98.4635 219.872 98.4016C220.924 98.2981 221.961 98.0818 222.966 97.7562C222.017 98.2831 220.985 98.642 219.915 98.8171C219.36 98.9003 218.796 98.8886 218.245 98.7826C217.673 98.6662 217.145 98.3907 216.722 97.9876C215.961 97.1395 215.546 96.0363 215.56 94.8968C215.522 93.8137 215.673 92.7323 216.004 91.7006Z" fill="#5D1115"/>
<path d="M207.679 39.1886C207.679 39.1886 208.895 45.3466 217.528 36.322L225.857 41.4753C227.742 42.6743 229.254 44.377 230.222 46.3908C233.514 53.3574 235.44 60.8903 235.897 68.582C235.897 68.582 237.074 76.3333 225.565 91.6187C225.565 91.6187 219.548 92.7785 218.109 86.3697L221.805 81.2688C221.805 81.2688 202.284 83.0999 197.183 78.3914C197.183 78.3914 194.512 45.0202 205.815 38.3691L207.679 39.1886Z" fill="#2B9D8A"/>
<path d="M222.164 53.2793C222.394 54.7325 222.607 56.1874 222.803 57.6443C222.993 59.1019 223.2 60.5574 223.374 62.0167L223.895 66.3949C224.076 67.8534 224.209 69.3173 224.369 70.7783L224.372 70.8023L224.37 70.8226C224.218 72.6209 223.942 74.4066 223.545 76.1672C223.185 77.9349 222.6 79.6494 221.805 81.2688C222.447 79.5977 222.918 77.8658 223.211 76.0997C223.371 75.2204 223.497 74.3356 223.604 73.4488C223.721 72.5646 223.819 71.6727 223.882 70.7884L223.883 70.8326C223.716 69.3725 223.522 67.9153 223.377 66.4529L222.916 62.068C222.763 60.6062 222.644 59.1408 222.506 57.6775C222.377 56.2132 222.263 54.7471 222.164 53.2793Z" fill="#0D5246"/>
<path d="M220.107 54.718C220.688 55.2026 221.203 55.7624 221.637 56.3828C222.089 56.9898 222.458 57.655 222.733 58.3604C222.15 57.8767 221.636 57.3167 221.203 56.6956C220.751 56.0879 220.383 55.4229 220.107 54.718Z" fill="#0D5246"/>
<path d="M224.126 70.8054C224.723 70.7993 225.252 70.8606 225.782 70.882C226.046 70.8968 226.305 70.8942 226.57 70.8915C226.833 70.8764 227.094 70.8475 227.396 70.8054C227.198 71.0382 226.939 71.2103 226.648 71.3018C226.36 71.39 226.059 71.4287 225.757 71.4163C225.462 71.3994 225.171 71.3405 224.892 71.2415C224.611 71.1477 224.35 70.9995 224.126 70.8054Z" fill="#0D5246"/>
<path d="M209.53 41.1355C208.997 42.7423 208.486 44.3545 208.035 45.9843C207.56 47.6067 207.122 49.2388 206.722 50.8806C205.914 54.161 205.209 57.4654 204.68 60.7994C204.14 64.1307 203.786 67.4895 203.619 70.8602C203.59 72.5458 203.511 74.2348 203.622 75.9203C203.617 77.6138 203.874 79.2849 204.012 80.9748C203.413 77.6334 203.144 74.2414 203.207 70.8475C203.313 67.4536 203.628 64.0695 204.152 60.7146C204.728 57.3703 205.429 54.0478 206.325 50.7771C207.204 47.5034 208.274 44.284 209.53 41.1355Z" fill="#0D5246"/>
<path d="M205.815 38.3691C205.616 39.2622 205.436 40.1588 205.319 41.0615C205.165 41.9435 205.155 42.8444 205.288 43.7297C205.383 44.1571 205.631 44.4547 206.004 44.349C206.407 44.2254 206.779 44.0199 207.099 43.7455C207.79 43.1695 208.432 42.5368 209.019 41.8539L209.412 41.4141L209.455 42.0128C209.488 42.6272 209.648 43.2282 209.924 43.778C210.042 44.037 210.224 44.2619 210.452 44.4319C210.681 44.602 210.948 44.7116 211.23 44.7507C211.837 44.7706 212.438 44.6234 212.968 44.3251C213.536 44.0355 214.073 43.6885 214.57 43.2897C216.576 41.6351 218.429 39.8036 220.107 37.8174C219.33 38.8672 218.531 39.9042 217.662 40.8844C216.797 41.8769 215.858 42.8011 214.851 43.6485C214.335 44.0739 213.777 44.4455 213.186 44.7574C212.576 45.1088 211.881 45.2831 211.177 45.2608C210.809 45.2192 210.458 45.0838 210.156 44.8677C209.855 44.6516 209.615 44.362 209.457 44.0264C209.152 43.403 208.981 42.7222 208.955 42.0284L209.392 42.1873C208.776 42.8838 208.103 43.5273 207.379 44.1111C207 44.4305 206.55 44.6541 206.067 44.763C205.924 44.7923 205.776 44.7851 205.636 44.7419C205.497 44.6987 205.371 44.621 205.269 44.516C205.093 44.3177 204.979 44.0727 204.939 43.8107C204.861 43.3431 204.847 42.8669 204.899 42.3957C204.939 41.9353 205.007 41.4778 205.103 41.0257C205.286 40.1265 205.524 39.2393 205.815 38.3691Z" fill="#0D5246"/>
<path d="M207.368 52.6904C207.67 52.6904 207.915 52.4456 207.915 52.1438C207.915 51.8419 207.67 51.5971 207.368 51.5971C207.067 51.5971 206.822 51.8419 206.822 52.1438C206.822 52.4456 207.067 52.6904 207.368 52.6904Z" fill="black"/>
<path d="M209.008 46.3439C209.31 46.3439 209.555 46.0992 209.555 45.7973C209.555 45.4954 209.31 45.2507 209.008 45.2507C208.706 45.2507 208.462 45.4954 208.462 45.7973C208.462 46.0992 208.706 46.3439 209.008 46.3439Z" fill="black"/>
<path d="M206.006 60.1312C206.308 60.1312 206.552 59.8865 206.552 59.5846C206.552 59.2827 206.308 59.038 206.006 59.038C205.704 59.038 205.459 59.2827 205.459 59.5846C205.459 59.8865 205.704 60.1312 206.006 60.1312Z" fill="black"/>
<path d="M204.886 67.9831C205.188 67.9831 205.433 67.7383 205.433 67.4364C205.433 67.1346 205.188 66.8898 204.886 66.8898C204.585 66.8898 204.34 67.1346 204.34 67.4364C204.34 67.7383 204.585 67.9831 204.886 67.9831Z" fill="black"/>
<path d="M204.544 76.581C204.846 76.581 205.09 76.3363 205.09 76.0344C205.09 75.7325 204.846 75.4878 204.544 75.4878C204.242 75.4878 203.997 75.7325 203.997 76.0344C203.997 76.3363 204.242 76.581 204.544 76.581Z" fill="black"/>
<path d="M206.527 38.9271C206.527 38.9271 210.147 38.9941 212.216 36.1166C213.203 34.7448 213.206 31.9695 213.109 30.3551C213.065 29.6315 213.179 28.907 213.443 28.2318C213.808 27.2988 214.257 26.0276 215.17 25.943C215.842 25.8807 216.112 25.7032 216.355 26.3521C216.755 27.4256 216.06 28.6099 215.576 29.4348C214.883 30.6151 214.294 30.8728 214.284 31.6894C214.275 32.3123 215.273 33.3487 215.687 33.3944C216.386 33.4716 216.702 31.3511 218.577 27.8141C219.761 25.5807 220.305 25.1618 220.442 23.7675C220.491 23.2725 220.692 21.223 219.459 20.031C218.886 19.4782 218.561 19.6466 216.073 18.5931C215.383 18.3191 214.707 18.0078 214.05 17.6605C212.069 16.5781 212.113 16.0213 210.953 15.6917C209.906 15.3939 209.844 15.8412 207.843 15.7227C205.915 15.6086 205.744 15.1792 204.852 15.4335C203.304 15.8748 202.561 17.5281 202.361 17.9723C201.963 18.7413 201.758 19.5958 201.764 20.4619C201.849 21.3406 202.175 22.1789 202.705 22.8848C202.956 23.1409 203.976 21.6646 204.531 21.1092C205.076 20.565 205.695 20.7878 206.539 20.8403C207.361 20.8914 207.316 21.4036 208.532 21.8532C208.966 22.0134 210.702 21.2354 211.263 22.1965C211.86 23.2205 212.324 23.3446 212.044 24.2975C211.869 24.8928 211.977 25.6241 212.194 27.087C212.349 28.1368 211.5 31.8035 211.5 31.8035C211.425 31.9557 211.321 32.0915 211.194 32.2033C211.067 32.315 210.918 32.4004 210.758 32.4545C210.597 32.5086 210.428 32.5304 210.259 32.5186C210.09 32.5067 209.925 32.4615 209.773 32.3856C208.853 31.9118 207.902 31.5007 206.926 31.155C206.343 30.9565 205.724 30.8898 205.112 30.9597C204.501 31.0296 203.912 31.2344 203.389 31.5593C203.026 31.7814 202.653 32.0302 202.357 32.2546C202.161 32.4038 202.004 32.599 201.901 32.823C201.798 33.0471 201.752 33.293 201.766 33.5392C201.874 35.1129 202.527 38.9622 206.527 38.9271ZM203.087 33.4595C203.236 32.7099 204.354 32.4184 204.992 32.2527C205.498 32.0743 206.046 32.0549 206.562 32.1971C206.685 32.235 207.796 32.6168 207.897 33.5122C207.998 34.4078 206.999 35.0321 206.843 35.1259C206.469 35.3505 206.044 35.4757 205.608 35.4895C205.172 35.5034 204.74 35.4054 204.353 35.205C203.78 34.9087 202.941 34.18 203.087 33.4595Z" fill="#1E1D22"/>
<path d="M43.9134 45.4918H33.1194C32.9775 45.4918 32.8414 45.4354 32.741 45.335C32.6406 45.2347 32.5842 45.0985 32.5842 44.9566V31.3214C32.5842 31.1794 32.6406 31.0433 32.741 30.9429C32.8414 30.8426 32.9775 30.7862 33.1194 30.7862H48.0827C48.2246 30.7862 48.3607 30.8426 48.4611 30.9429C48.5615 31.0433 48.6179 31.1794 48.6179 31.3214V41.2424L43.9134 45.4918Z" fill="#A9E5DB"/>
<path d="M48.6176 41.2591H43.9136V45.4916L48.6176 41.2591Z" fill="#32B6A0"/>
<path d="M42.736 29.4092H37.9297C37.6342 29.4092 37.3945 29.6488 37.3945 29.9444V31.7642C37.3945 32.0598 37.6342 32.2994 37.9297 32.2994H42.736C43.0316 32.2994 43.2712 32.0598 43.2712 31.7642V29.9444C43.2712 29.6488 43.0316 29.4092 42.736 29.4092Z" fill="#32B6A0"/>
<path d="M44.3416 35.7889H36.8271V36.3241H44.3416V35.7889Z" fill="#32B6A0"/>
<path d="M44.3416 39.0002H36.8271V39.5354H44.3416V39.0002Z" fill="#32B6A0"/>
<path d="M15.2693 129.322C16.5601 130.325 18.8342 132.706 18.8956 134.493C18.8956 134.493 23.075 129.948 21.8868 126.062C21.1829 124.61 20.015 123.433 18.5678 122.719C18.5678 122.719 20.2067 121.8 21.9276 124.056C21.9276 124.056 21.3131 117.955 12.811 120.17C12.811 120.17 9.492 113.4 2.91574 119.794C2.91574 119.794 7.34092 119.23 6.48046 120.609C4.87848 121.059 3.3791 121.816 2.06546 122.837C1.62485 123.228 1.26653 123.702 1.01147 124.232C0.756423 124.762 0.60977 125.338 0.580104 125.926C0.477739 127.577 0.320685 130.843 0.641654 130.889C1.0718 130.951 3.8991 128.381 5.80442 128.569C7.70974 128.757 1.44059 134.399 1.44059 134.399C1.44059 134.399 2.73137 139.288 3.28456 139.225C3.83759 139.163 5.84544 137.763 5.02583 139.225L3.61232 140.354L5.45614 142.903L10.0862 140.855C10.0862 140.855 8.03753 135.256 9.92234 136.781C9.92234 136.781 11.3563 138.682 11.3768 140.103C11.3768 140.103 17.5741 137.408 16.9596 135.558C16.2905 133.843 15.508 132.173 14.6173 130.561C14.4679 130.289 14.3805 129.987 14.3612 129.677C14.3407 129.207 14.4635 128.695 15.2693 129.322ZM14.5079 122.83C15.0884 122.43 16.5157 122.688 17.0518 123.993C17.6255 125.39 17.6014 126.947 17.0211 127.347C16.4406 127.748 14.7913 127.225 14.3782 125.874C13.9207 124.37 13.9275 123.231 14.5079 122.83Z" fill="#8B9D36"/>
<path d="M12.8108 120.17C12.1499 120.922 11.5389 121.716 10.9817 122.548C10.4549 123.394 10.0203 124.294 9.68544 125.232C9.35319 126.173 9.06825 127.13 8.83168 128.1C8.58441 129.072 8.34821 130.042 8.15129 131.023C7.94265 132.001 7.76033 132.985 7.61105 133.973C7.45732 134.961 7.36885 135.955 7.24743 136.955C7.01187 138.962 6.41313 140.91 5.48047 142.703C5.87802 141.784 6.20609 140.836 6.46192 139.867C6.72722 138.906 6.9019 137.921 6.98367 136.927C7.1312 134.919 7.4086 132.924 7.81413 130.953C8.02254 129.968 8.27094 128.991 8.52849 128.021C8.77107 127.042 9.07514 126.078 9.43889 125.137C9.80805 124.195 10.2785 123.295 10.8419 122.455C11.4395 121.644 12.0976 120.88 12.8108 120.17Z" fill="#5E7C24"/>
<path d="M10.3972 123.355C9.72106 123.498 9.05618 123.689 8.40778 123.928C7.7612 124.163 7.12211 124.418 6.50188 124.716C5.24403 125.278 4.05096 125.968 2.8335 126.647C3.09931 126.422 3.37678 126.211 3.65197 125.996C3.94006 125.8 4.22374 125.596 4.51866 125.409C5.11173 125.038 5.72592 124.702 6.3581 124.403C6.99698 124.115 7.65519 123.872 8.32792 123.676C9.00006 123.477 9.69612 123.368 10.3972 123.355Z" fill="#5E7C24"/>
<path d="M7.59591 133.049C7.11976 133.419 6.62407 133.721 6.14 134.036C5.89742 134.192 5.66051 134.353 5.42927 134.518C5.19073 134.677 4.98991 134.886 4.84106 135.13C4.87373 134.819 5.01903 134.53 5.24963 134.318C5.46242 134.103 5.69823 133.911 5.95282 133.747C6.45494 133.419 7.01127 133.183 7.59591 133.049Z" fill="#5E7C24"/>
<path d="M8.54541 128.585C9.10654 129.11 9.6299 129.675 10.1116 130.274C10.5969 130.872 11.047 131.498 11.4594 132.149C11.8697 132.804 12.2218 133.495 12.5116 134.212C12.8107 134.927 12.9746 135.692 12.9951 136.467C12.8456 135.722 12.6012 134.999 12.2678 134.316C11.9472 133.63 11.5794 132.966 11.167 132.331C10.7806 131.677 10.3404 131.056 9.90143 130.434C9.461 129.812 9.00621 129.199 8.54541 128.585Z" fill="#5E7C24"/>
<path d="M2.87476 148.168L4.59567 149.756C4.59567 149.756 6.2756 147.98 6.45998 149.213C6.45998 149.213 6.19365 150.446 5.86586 150.55C5.86586 150.55 9.98375 153.862 10.8135 151.135C11.147 149.915 11.5681 148.721 12.0734 147.562C12.0734 147.562 12.9953 148.064 12.1964 152.013C12.1964 152.013 15.3832 151.076 16.5667 149.358C16.7026 149.155 16.7751 148.917 16.7749 148.673C16.7863 147.69 16.9157 144.926 18.0352 145.964C18.0352 145.964 18.6805 146.277 18.1888 148.377C18.1888 148.377 20.7824 145.453 19.5505 143.656C19.307 143.319 18.9545 143.077 18.5527 142.971C18.151 142.865 17.725 142.902 17.3471 143.075C16.6269 143.387 15.2905 143.963 12.811 145.024C9.61883 146.419 6.28829 147.473 2.87476 148.168Z" fill="#8B9D36"/>
<path d="M8.54541 150.592C8.70486 149.689 8.99001 148.812 9.39257 147.988C9.59122 147.569 9.83522 147.174 10.1202 146.809C10.2654 146.623 10.4333 146.456 10.62 146.313C10.8053 146.163 11.0362 146.08 11.2747 146.079C10.8679 146.255 10.5363 146.569 10.3384 146.966C10.1047 147.345 9.89226 147.736 9.70219 148.139C9.30655 148.943 8.95417 149.772 8.54541 150.592Z" fill="#5E7C24"/>
<path d="M14.1427 149.296C14.0957 148.487 14.1692 147.676 14.3609 146.889C14.4564 146.491 14.5912 146.104 14.7632 145.733C14.9214 145.346 15.2088 145.025 15.5768 144.825C15.3107 145.113 15.117 145.46 15.0116 145.837C14.8915 146.209 14.7883 146.587 14.6958 146.97C14.5092 147.737 14.3544 148.514 14.1427 149.296Z" fill="#5E7C24"/>
<path d="M42.7834 120.83C42.7834 120.83 38.6451 121.423 42.3327 124.349C42.3327 124.349 43.2751 125.143 46.3482 126.062C46.3482 126.062 48.274 117.687 42.7834 120.83Z" fill="#5E7C24"/>
<path d="M46.3482 126.062C46.2716 125.788 46.2214 125.513 46.1524 125.243C46.0662 124.977 46.004 124.707 45.9097 124.448C45.7324 123.93 45.5005 123.433 45.2178 122.964C44.9297 122.502 44.5785 122.083 44.1744 121.719C43.7638 121.347 43.2936 121.046 42.7834 120.83C43.3515 120.924 43.8873 121.158 44.3435 121.509C44.8071 121.859 45.2027 122.29 45.5104 122.782C45.8074 123.276 46.0287 123.812 46.1668 124.372C46.2419 124.648 46.2701 124.934 46.3177 125.213C46.3316 125.498 46.3489 125.78 46.3482 126.062Z" fill="#50661A"/>
<path d="M37.5313 103.908C37.5313 103.908 42.1194 100.985 43.4936 107.476C43.4936 107.476 41.1125 105.426 41.081 106.612C41.8522 107.515 42.439 108.56 42.8081 109.689C43.022 110.53 42.9031 111.422 42.4762 112.177C41.893 113.239 40.7147 115.323 40.5076 115.229C40.2304 115.103 39.57 112.423 38.3769 111.808C37.1839 111.193 38.6705 117.099 38.6705 117.099C38.6705 117.099 36.0071 119.635 35.7064 119.383C35.4058 119.132 34.7707 117.494 34.6827 118.715L35.0742 119.957L32.9974 120.83L31.074 117.782C31.074 117.782 34.4596 115.096 32.7576 115.318C32.7576 115.318 31.174 115.946 30.6084 116.819C30.6084 116.819 28.0162 112.768 29.0978 111.857C30.1543 111.055 31.2618 110.322 32.4132 109.662C32.6454 109.53 32.8397 109.341 32.9773 109.112C33.1298 108.849 33.1595 108.569 32.521 108.639C31.3717 108.765 29.1072 109.369 28.3751 110.453C28.3751 110.453 27.6893 106.03 29.9017 104.076C30.8656 103.452 32.0115 103.171 33.1548 103.278C33.1548 103.278 32.5497 102.078 30.6591 102.817C30.6591 102.817 33.3972 99.2695 37.5313 103.908Z" fill="#5E7C24"/>
<path d="M39.5874 111.175C39.213 110.262 38.8616 109.358 38.4346 108.495C38.2249 108.067 37.9764 107.66 37.6922 107.277C37.4253 106.879 37.0167 106.596 36.5493 106.488C36.8053 106.48 37.0598 106.531 37.2929 106.637C37.5261 106.743 37.7317 106.901 37.8938 107.099C38.2343 107.471 38.5201 107.889 38.7427 108.341C39.1808 109.231 39.4663 110.189 39.5874 111.175Z" fill="#50661A"/>
<path d="M30.1633 113.358C30.3972 112.852 30.6917 112.375 31.0403 111.94C31.3846 111.494 31.7846 111.095 32.2305 110.751C32.6785 110.396 33.1917 110.133 33.741 109.975C34.2917 109.829 34.8732 109.848 35.4133 110.029C34.8743 109.983 34.3315 110.052 33.8212 110.232C33.3235 110.425 32.8578 110.692 32.4399 111.024C32.0109 111.354 31.6105 111.718 31.2431 112.115C30.8717 112.513 30.5066 112.923 30.1633 113.358Z" fill="#50661A"/>
<path d="M34.4658 104.499C34.6348 104.273 34.8471 104.083 35.0904 103.94C35.3336 103.798 35.6028 103.705 35.8824 103.667C36.163 103.623 36.448 103.615 36.7305 103.644C37.0121 103.676 37.2901 103.733 37.5615 103.815L37.6624 103.843L37.6212 103.947C37.0852 105.301 36.6298 106.692 36.1801 108.08C35.74 109.471 35.3436 110.877 34.9555 112.284C34.5823 113.696 34.233 115.114 33.9076 116.538C33.5802 117.962 33.2922 119.395 32.9976 120.83C33.1776 119.377 33.394 117.927 33.6776 116.49C33.9355 115.047 34.2857 113.623 34.641 112.201C34.9994 110.78 35.4251 109.376 35.8833 107.983C36.3388 106.589 36.8491 105.215 37.4417 103.869L37.5013 104.001L37.1098 103.885C36.9765 103.86 36.8441 103.826 36.7101 103.804C36.4415 103.761 36.1685 103.752 35.8977 103.778C35.3451 103.824 34.8319 104.083 34.4658 104.499Z" fill="#50661A"/>
<path d="M35.8838 117.046C35.7505 116.546 35.5663 116.06 35.3342 115.597C35.2259 115.389 35.0634 115.214 34.864 115.091C34.6335 114.988 34.382 114.941 34.1299 114.954C34.2549 114.88 34.3934 114.832 34.5373 114.813C34.6812 114.794 34.8275 114.804 34.9675 114.842C35.2524 114.949 35.4886 115.156 35.632 115.424C35.9014 115.919 35.9904 116.493 35.8838 117.046Z" fill="#50661A"/>
<path d="M20.5754 150.592C20.5754 150.592 19.7598 147.776 17.6893 149.368C16.9855 149.927 16.482 150.7 16.2545 151.569C15.8811 152.917 15.5583 155.359 16.478 158.824C16.478 158.824 18.5976 155.892 20.1657 154.854C21.9341 153.684 23.0748 151.01 20.5754 150.592Z" fill="#C4CE6E"/>
<path d="M20.5752 150.592C20.2638 150.822 19.9921 151.101 19.771 151.419C19.5369 151.725 19.325 152.047 19.1368 152.383C18.7535 153.053 18.4126 153.747 18.1162 154.46C17.8035 155.167 17.5338 155.894 17.266 156.623L16.4778 158.824C16.5451 158.439 16.6342 158.059 16.712 157.675C16.802 157.294 16.9139 156.919 17.0141 156.54C17.2317 155.788 17.5073 155.053 17.7998 154.324C18.1142 153.601 18.4866 152.905 18.9131 152.243C19.3196 151.562 19.8912 150.994 20.5752 150.592Z" fill="#8B9D36"/>
<path d="M23.5636 111.481C23.5636 111.481 23.6327 108.546 21.1837 109.415C20.3459 109.727 19.6339 110.306 19.1568 111.062C18.3966 112.228 17.3561 114.452 17.1909 118.038C17.1909 118.038 20.0893 115.909 21.8936 115.411C23.9284 114.849 25.8174 112.66 23.5636 111.481Z" fill="#8B9D36"/>
<path d="M23.5636 111.481C23.1983 111.603 22.8555 111.784 22.5493 112.017C22.2344 112.235 21.9357 112.476 21.6555 112.737C21.0891 113.255 20.5562 113.809 20.06 114.395C19.5499 114.971 19.0751 115.579 18.6015 116.189L17.1909 118.038C17.3705 117.693 17.5694 117.359 17.7586 117.018C17.9584 116.684 18.1775 116.363 18.3865 116.034C18.826 115.389 19.2977 114.767 19.7998 114.169C20.3162 113.58 20.8799 113.033 21.4853 112.535C22.0772 112.013 22.7925 111.65 23.5636 111.481Z" fill="#5E7C24"/>
<path d="M42.0474 150.592C42.0474 150.592 42.863 147.776 44.9335 149.368C45.6373 149.927 46.1408 150.7 46.3683 151.569C46.7417 152.917 47.0645 155.359 46.1448 158.824C46.1448 158.824 44.0252 155.892 42.4571 154.854C40.6887 153.684 39.548 151.01 42.0474 150.592Z" fill="#8B9D36"/>
<path d="M42.0471 150.592C42.7311 150.994 43.3027 151.562 43.7092 152.243C44.1357 152.905 44.508 153.601 44.8225 154.324C45.1212 155.049 45.3834 155.789 45.6082 156.54C45.7083 156.919 45.8203 157.294 45.9103 157.675C45.9881 158.059 46.0772 158.439 46.1445 158.824L45.3562 156.623C45.0884 155.894 44.8188 155.167 44.506 154.46C44.2096 153.747 43.8687 153.053 43.4854 152.383C43.2973 152.047 43.0853 151.725 42.8512 151.419C42.6301 151.101 42.3585 150.822 42.0471 150.592Z" fill="#5E7C24"/>
<path d="M42.7831 120.83C42.7831 120.83 32.474 112.021 29.8025 163.484" stroke="#50661A" stroke-width="0.64428" stroke-miterlimit="10"/>
<path d="M32.9975 120.83C32.9975 120.83 27.8689 154.771 30.9419 163.484" stroke="#50661A" stroke-width="0.64428" stroke-miterlimit="10"/>
<path d="M28.9867 163.484C28.9867 163.484 25.1753 148.189 20.5754 150.592" stroke="#50661A" stroke-width="0.64428" stroke-miterlimit="10"/>
<path d="M29.5346 158.923C29.5346 158.923 32.8563 102.097 23.564 111.481" stroke="#50661A" stroke-width="0.64428" stroke-miterlimit="10"/>
<path d="M33.6362 163.484C33.6362 163.484 37.4476 148.189 42.0474 150.592" stroke="#50661A" stroke-width="0.64428" stroke-miterlimit="10"/>
<path d="M19.2615 143.335C19.2615 143.335 26.4761 141.566 30.4096 163.128" stroke="#50661A" stroke-width="0.64428" stroke-miterlimit="10"/>
<path d="M21.6377 129.975C21.6377 129.975 23.7279 131.369 31.6372 163.128" stroke="#50661A" stroke-width="0.64428" stroke-miterlimit="10"/>
<path d="M41.394 137.18C41.394 137.18 33.5819 149.547 32.856 163.484" stroke="#50661A" stroke-width="0.64428" stroke-miterlimit="10"/>
<path d="M20.6163 159.833V162.695C20.6137 162.958 20.7157 163.211 20.8998 163.399C21.0839 163.587 21.3351 163.694 21.5981 163.696H41.2688C41.5317 163.694 41.7829 163.587 41.967 163.399C42.1511 163.211 42.2531 162.958 42.2506 162.695V160.058C42.2531 159.797 42.1525 159.545 41.9708 159.358C41.7891 159.17 41.5408 159.062 41.2798 159.057L21.609 158.832C21.4779 158.832 21.348 158.858 21.2269 158.908C21.1058 158.958 20.996 159.032 20.9036 159.125C20.8113 159.219 20.7383 159.329 20.689 159.451C20.6397 159.572 20.615 159.702 20.6163 159.833Z" fill="#D6694B"/>
<path d="M21.5552 163.696L22.2547 178.465H40.1492L41.3117 163.696H21.5552Z" fill="#E19974"/>
<path d="M38.1734 136.338C38.2007 134.991 40.987 137.435 40.987 137.435C39.3274 129.987 34.0248 133.093 34.0248 133.093C29.1761 127.619 26.028 131.522 26.028 131.522C28.2166 130.774 28.9304 132.167 28.9304 132.167C27.6238 131.983 26.2935 132.248 25.1572 132.919C22.6067 135.036 23.4433 140.099 23.4433 140.099C24.2833 138.902 26.9123 138.323 28.244 138.233C29.0806 138.177 28.9337 138.588 28.7084 138.902C28.5573 139.105 28.3624 139.271 28.1383 139.389C26.8067 140.083 25.5233 140.866 24.2969 141.733C23.0472 142.715 26.0997 147.447 26.0997 147.447C26.7484 146.483 28.5821 145.842 28.5821 145.842C30.5591 145.671 26.6494 148.565 26.6494 148.565L28.9132 152.124L31.3205 151.229L30.8527 149.798C30.9449 148.412 31.6961 150.306 32.0477 150.606C32.3994 150.909 35.4724 148.151 35.4724 148.151C35.4724 148.151 33.6901 141.36 35.0798 142.119C36.4729 142.875 37.265 145.953 37.5895 146.11C37.8319 146.228 39.1807 143.913 39.8499 142.732C40.0923 142.311 40.2491 141.845 40.3112 141.363C40.3733 140.881 40.3396 140.391 40.2119 139.922C39.7648 138.609 39.0731 137.393 38.1734 136.338ZM30.3985 136.283C29.5107 137.018 28.1449 136.61 27.9265 136.063C27.7044 135.52 28.384 134.437 29.4015 133.748C30.3542 133.1 31.4502 133.584 31.6688 134.131C31.8907 134.674 31.3854 135.461 30.3985 136.283Z" fill="#5E7C24"/>
<path d="M34.0243 133.093C34.201 133.905 34.3165 134.729 34.37 135.558C34.3864 136.393 34.3121 137.229 34.1484 138.048C33.9816 138.865 33.762 139.669 33.4908 140.457C33.2347 141.244 32.9695 142.032 32.6729 142.808C32.0685 144.355 31.3624 145.86 30.5593 147.314C30.1673 148.036 29.8441 148.793 29.594 149.576C29.333 150.36 29.13 151.161 28.9866 151.974C29.1343 150.312 29.5872 148.692 30.3228 147.194C31.0854 145.731 31.7628 144.225 32.3517 142.684C32.6555 141.918 32.9278 141.141 33.1935 140.358C33.4612 139.577 33.7018 138.792 33.89 137.994C34.0803 137.196 34.1849 136.38 34.2019 135.56C34.194 134.735 34.1347 133.911 34.0243 133.093Z" fill="#50661A"/>
<path d="M34.2581 136.402C34.7436 136.729 35.1811 137.122 35.5578 137.571C35.9392 138.014 36.2848 138.487 36.5915 138.985C36.8962 139.482 37.1667 140 37.4009 140.534C37.6352 141.067 37.829 141.617 37.9807 142.179L37.1593 140.653C36.8797 140.151 36.6023 139.65 36.2982 139.165C35.9993 138.678 35.6826 138.202 35.3483 137.738C35.0139 137.27 34.6497 136.824 34.2581 136.402Z" fill="#50661A"/>
<path d="M31.8484 144.362C32.208 144.711 32.4951 145.128 32.6932 145.589C32.795 145.821 32.8696 146.064 32.9155 146.314C32.9763 146.57 32.9388 146.841 32.8102 147.071C32.8054 146.833 32.7527 146.599 32.6554 146.383C32.5663 146.164 32.4745 145.946 32.3774 145.727C32.1718 145.284 31.995 144.828 31.8484 144.362Z" fill="#50661A"/>
<path d="M33.1924 140.854L31.4423 141.516C30.8644 141.743 30.289 141.974 29.7292 142.234C29.1653 142.483 28.6169 142.765 28.0871 143.08C27.5514 143.39 27.0564 143.766 26.6135 144.199C26.9638 143.669 27.4141 143.213 27.9391 142.855C28.4559 142.49 29.0078 142.177 29.5867 141.921C30.7332 141.399 31.9468 141.04 33.1924 140.854Z" fill="#50661A"/>
<path d="M50.5376 127.918C50.5376 127.918 54.5347 121.947 59.5336 128.998C59.5336 128.998 55.6186 127.817 56.1926 129.257C57.5844 129.927 58.8289 130.867 59.8535 132.022C60.5461 132.923 60.8635 134.057 60.7393 135.186C60.5873 136.773 60.2493 139.907 59.9521 139.905C59.5541 139.903 57.3787 137.042 55.6295 136.944C53.8803 136.846 58.7125 143.135 58.7125 143.135C58.7125 143.135 56.8253 147.608 56.3348 147.468C55.8442 147.328 54.2365 145.703 54.7613 147.216L55.8722 148.496L53.8304 150.658L49.949 148.033C49.949 148.033 52.6258 142.993 50.6979 144.173C50.6979 144.173 49.1218 145.777 48.8937 147.128C48.8937 147.128 43.6918 143.658 44.5198 141.984C45.3718 140.457 46.3205 138.985 47.36 137.578C47.5695 137.297 47.7057 136.969 47.7564 136.622C47.8083 136.219 47.7059 135.853 46.9667 136.285C45.6526 137.053 43.2467 138.993 42.9277 140.687C42.9277 140.687 39.8218 135.747 41.4685 132.215C42.3004 130.952 43.5287 130.001 44.9602 129.511C44.9602 129.511 43.615 128.397 41.7273 130.297C41.7273 130.297 43.1824 124.571 50.5376 127.918Z" fill="#C4CE6E"/>
<path d="M50.5378 127.918C51.2365 129.717 51.8141 131.56 52.2667 133.435C52.7356 135.307 53.0985 137.205 53.3827 139.114C53.6589 141.025 53.8378 142.948 53.9186 144.877C54.0018 146.804 53.9725 148.734 53.8306 150.658C53.8154 148.731 53.8057 146.808 53.6538 144.891C53.5323 142.974 53.3283 141.065 53.0418 139.164C52.7874 137.26 52.4214 135.372 52.0096 133.495C51.5955 131.619 51.1178 129.755 50.5378 127.918Z" fill="#8B9D36"/>
<path d="M51.536 131.096C51.2126 131.499 50.9236 131.928 50.6722 132.378C50.4211 132.824 50.1947 133.283 49.9941 133.753C49.7927 134.223 49.6174 134.705 49.455 135.193C49.2944 135.682 49.1507 136.179 48.9978 136.681C49.0138 136.156 49.08 135.634 49.1956 135.121C49.3113 134.607 49.4724 134.103 49.6772 133.617C49.8861 133.131 50.1438 132.668 50.4463 132.234C50.7432 131.796 51.1116 131.412 51.536 131.096Z" fill="#8B9D36"/>
<path d="M53.1987 139.005C53.7281 139.124 54.2272 139.351 54.6649 139.672C55.1027 139.992 55.4697 140.4 55.743 140.868C55.9258 141.179 56.0556 141.517 56.1269 141.87C55.7609 141.286 55.3273 140.747 54.8352 140.265C54.3357 139.788 53.7872 139.366 53.1987 139.005Z" fill="#8B9D36"/>
<path d="M258.416 179H16.4974C16.3554 179 16.2193 178.944 16.1189 178.843C16.0185 178.743 15.9622 178.607 15.9622 178.465C15.9622 178.323 16.0185 178.187 16.1189 178.086C16.2193 177.986 16.3554 177.93 16.4974 177.93H258.416C258.558 177.93 258.694 177.986 258.794 178.086C258.894 178.187 258.951 178.323 258.951 178.465C258.951 178.607 258.894 178.743 258.794 178.843C258.694 178.944 258.558 179 258.416 179Z" fill="#935B50"/>
</svg>
