<svg width="29" height="29" viewBox="0 0 29 29" fill="none" xmlns="http://www.w3.org/2000/svg">
<path d="M7.25 1.20833C7.25 0.540125 7.79133 0 8.45833 0H20.5417C21.2087 0 21.75 0.540125 21.75 1.20833C21.75 1.87654 21.2087 2.41667 20.5417 2.41667H8.45833C7.79133 2.41667 7.25 1.87654 7.25 1.20833ZM4.83333 8.45833H24.1667C24.8337 8.45833 25.375 7.91821 25.375 7.25C25.375 6.58179 24.8337 6.04167 24.1667 6.04167H4.83333C4.16633 6.04167 3.625 6.58179 3.625 7.25C3.625 7.91821 4.16633 8.45833 4.83333 8.45833ZM23.5625 19.3333H21.75V17.5208C21.75 16.8526 21.2087 16.3125 20.5417 16.3125C19.8747 16.3125 19.3333 16.8526 19.3333 17.5208V19.3333H17.5208C16.8538 19.3333 16.3125 19.8735 16.3125 20.5417C16.3125 21.2099 16.8538 21.75 17.5208 21.75H19.3333V23.5625C19.3333 24.2307 19.8747 24.7708 20.5417 24.7708C21.2087 24.7708 21.75 24.2307 21.75 23.5625V21.75H23.5625C24.2295 21.75 24.7708 21.2099 24.7708 20.5417C24.7708 19.8735 24.2295 19.3333 23.5625 19.3333ZM29 20.5417C29 25.2046 25.2058 29 20.5417 29C15.8775 29 12.0833 25.2046 12.0833 20.5417C12.0833 15.8787 15.8775 12.0833 20.5417 12.0833C25.2058 12.0833 29 15.8787 29 20.5417ZM26.5833 20.5417C26.5833 17.2103 23.873 14.5 20.5417 14.5C17.2103 14.5 14.5 17.2103 14.5 20.5417C14.5 23.873 17.2103 26.5833 20.5417 26.5833C23.873 26.5833 26.5833 23.873 26.5833 20.5417ZM10.875 26.5833H6.04167C4.04308 26.5833 2.41667 24.9569 2.41667 22.9583V18.125C2.41667 16.1264 4.04308 14.5 6.04167 14.5H10.875C11.542 14.5 12.0833 13.9599 12.0833 13.2917C12.0833 12.6235 11.542 12.0833 10.875 12.0833H6.04167C2.71029 12.0833 0 14.7936 0 18.125V22.9583C0 26.2897 2.71029 29 6.04167 29H10.875C11.542 29 12.0833 28.4599 12.0833 27.7917C12.0833 27.1235 11.542 26.5833 10.875 26.5833Z" fill="white"/>
</svg>
