<svg width="10" height="19" viewBox="0 0 10 19" fill="none" xmlns="http://www.w3.org/2000/svg">
<path d="M1.25781 5.00586H4.36816C5.69889 5.00586 6.70605 5.19271 7.38965 5.56641C8.07324 5.9401 8.41504 6.59635 8.41504 7.53516C8.41504 7.91341 8.35352 8.25521 8.23047 8.56055C8.11198 8.86589 7.9388 9.11654 7.71094 9.3125C7.48307 9.50846 7.20508 9.63607 6.87695 9.69531V9.76367C7.20964 9.83203 7.51042 9.95052 7.7793 10.1191C8.04818 10.2832 8.26237 10.5247 8.42188 10.8438C8.58594 11.1582 8.66797 11.5775 8.66797 12.1016C8.66797 12.7077 8.51986 13.2272 8.22363 13.6602C7.92741 14.0931 7.50358 14.4258 6.95215 14.6582C6.40527 14.8861 5.75358 15 4.99707 15H1.25781V5.00586ZM3.37695 8.96387H4.60742C5.22266 8.96387 5.64876 8.86816 5.88574 8.67676C6.12272 8.48079 6.24121 8.19368 6.24121 7.81543C6.24121 7.43262 6.09993 7.15918 5.81738 6.99512C5.53939 6.8265 5.09733 6.74219 4.49121 6.74219H3.37695V8.96387ZM3.37695 10.6455V13.25H4.75781C5.39583 13.25 5.84017 13.127 6.09082 12.8809C6.34147 12.6348 6.4668 12.3044 6.4668 11.8896C6.4668 11.6436 6.41211 11.4271 6.30273 11.2402C6.19336 11.0534 6.00879 10.9076 5.74902 10.8027C5.49382 10.6979 5.14062 10.6455 4.68945 10.6455H3.37695Z" fill="#DEDEDE"/>
</svg>
