<svg width="76" height="76" viewBox="0 0 76 76" fill="none" xmlns="http://www.w3.org/2000/svg">
<circle cx="38" cy="38" r="38" fill="#00BA9B"/>
<path d="M34.1176 47.6471C33.3735 47.6471 32.7365 47.3821 32.2066 46.8522C31.6767 46.3223 31.4118 45.6853 31.4118 44.9412V28.7059C31.4118 27.9618 31.6767 27.3248 32.2066 26.7949C32.7365 26.265 33.3735 26 34.1176 26H46.2941C47.0382 26 47.6752 26.265 48.2051 26.7949C48.7351 27.3248 49 27.9618 49 28.7059V44.9412C49 45.6853 48.7351 46.3223 48.2051 46.8522C47.6752 47.3821 47.0382 47.6471 46.2941 47.6471H34.1176ZM34.1176 44.9412H46.2941V28.7059H34.1176V44.9412ZM28.7059 53.0588C27.9618 53.0588 27.3248 52.7939 26.7949 52.264C26.265 51.7341 26 51.0971 26 50.3529V31.4118H28.7059V50.3529H43.5882V53.0588H28.7059Z" fill="white"/>
</svg>
