<svg width="24" height="32" viewBox="0 0 24 32" fill="none" xmlns="http://www.w3.org/2000/svg">
<path d="M12 16C13.5823 16 15.129 15.5308 16.4446 14.6518C17.7602 13.7727 18.7855 12.5233 19.391 11.0615C19.9965 9.59966 20.155 7.99113 19.8463 6.43928C19.5376 4.88743 18.7757 3.46197 17.6569 2.34315C16.538 1.22433 15.1126 0.462403 13.5607 0.153721C12.0089 -0.15496 10.4003 0.00346629 8.93853 0.608967C7.47672 1.21447 6.22729 2.23985 5.34824 3.55544C4.46919 4.87104 4 6.41775 4 8C4.00212 10.1211 4.84565 12.1547 6.34549 13.6545C7.84532 15.1544 9.87892 15.9979 12 16ZM12 2.66667C13.0548 2.66667 14.086 2.97947 14.963 3.5655C15.8401 4.15153 16.5237 4.98449 16.9274 5.95903C17.331 6.93357 17.4366 8.00592 17.2309 9.04049C17.0251 10.0751 16.5171 11.0254 15.7712 11.7712C15.0254 12.5171 14.075 13.0251 13.0405 13.2309C12.0059 13.4366 10.9336 13.331 9.95902 12.9274C8.98448 12.5237 8.15153 11.8401 7.5655 10.963C6.97946 10.086 6.66667 9.05484 6.66667 8C6.66667 6.58552 7.22857 5.22896 8.22876 4.22877C9.22896 3.22857 10.5855 2.66667 12 2.66667Z" fill="#9493B3"/>
<path d="M12 18.6666C8.81849 18.6702 5.76829 19.9356 3.51862 22.1852C1.26894 24.4349 0.00352914 27.4851 0 30.6666C0 31.0202 0.140476 31.3594 0.390524 31.6094C0.640573 31.8595 0.979711 32 1.33333 32C1.68696 32 2.02609 31.8595 2.27614 31.6094C2.52619 31.3594 2.66667 31.0202 2.66667 30.6666C2.66667 28.1913 3.65 25.8173 5.40034 24.067C7.15068 22.3166 9.52465 21.3333 12 21.3333C14.4754 21.3333 16.8493 22.3166 18.5997 24.067C20.35 25.8173 21.3333 28.1913 21.3333 30.6666C21.3333 31.0202 21.4738 31.3594 21.7239 31.6094C21.9739 31.8595 22.313 32 22.6667 32C23.0203 32 23.3594 31.8595 23.6095 31.6094C23.8595 31.3594 24 31.0202 24 30.6666C23.9965 27.4851 22.7311 24.4349 20.4814 22.1852C18.2317 19.9356 15.1815 18.6702 12 18.6666Z" fill="#9493B3"/>
</svg>
