<svg width="25" height="25" viewBox="0 0 25 25" fill="none" xmlns="http://www.w3.org/2000/svg">
<path d="M11.3281 3.72595H3.59211C3.00591 3.72595 2.44372 3.95882 2.02921 4.37333C1.6147 4.78783 1.38184 5.35003 1.38184 5.93623V21.4082C1.38184 21.9944 1.6147 22.5566 2.02921 22.9711C2.44372 23.3856 3.00591 23.6184 3.59211 23.6184H19.0641C19.6503 23.6184 20.2124 23.3856 20.627 22.9711C21.0415 22.5566 21.2743 21.9944 21.2743 21.4082V13.6722" stroke="#C0C0C0" stroke-width="2" stroke-linecap="round" stroke-linejoin="round"/>
<path d="M19.6166 2.06824C20.0563 1.62859 20.6526 1.38159 21.2744 1.38159C21.8961 1.38159 22.4924 1.62859 22.9321 2.06824C23.3717 2.50789 23.6187 3.10418 23.6187 3.72594C23.6187 4.34771 23.3717 4.944 22.9321 5.38365L12.4332 15.8825L8.0127 16.9876L9.11783 12.5671L19.6166 2.06824Z" stroke="#C0C0C0" stroke-width="2" stroke-linecap="round" stroke-linejoin="round"/>
</svg>
