<svg width="76" height="76" viewBox="0 0 76 76" fill="none" xmlns="http://www.w3.org/2000/svg">
<g id="Group 1447">
<circle id="Ellipse 44" cx="38" cy="38" r="38" fill="white"/>
<g id="Group 1446">
<path id="Vector" d="M36.6295 27.7412H27.5843C26.8989 27.7412 26.2416 28.0135 25.7569 28.4981C25.2723 28.9828 25 29.6401 25 30.3255V48.4158C25 49.1012 25.2723 49.7585 25.7569 50.2432C26.2416 50.7278 26.8989 51.0001 27.5843 51.0001H45.6746C46.36 51.0001 47.0173 50.7278 47.502 50.2432C47.9866 49.7585 48.2589 49.1012 48.2589 48.4158V39.3707" stroke="#C8C8C8" stroke-width="2" stroke-linecap="round" stroke-linejoin="round"/>
<path id="Vector_2" d="M46.3208 25.8028C46.8348 25.2888 47.532 25 48.259 25C48.986 25 49.6832 25.2888 50.1972 25.8028C50.7113 26.3169 51.0001 27.0141 51.0001 27.7411C51.0001 28.4681 50.7113 29.1653 50.1972 29.6793L37.9217 41.9549L32.7531 43.247L34.0452 38.0784L46.3208 25.8028Z" stroke="#C8C8C8" stroke-width="2" stroke-linecap="round" stroke-linejoin="round"/>
</g>
<g id="Group 1450">
<circle id="Ellipse 45" cx="50.5" cy="53.5" r="7.5" fill="#00BA9B"/>
<g id="Group 1448">
<path id="Vector_3" d="M50.4999 50.8213V56.1784" stroke="white" stroke-width="2" stroke-linecap="round" stroke-linejoin="round"/>
<path id="Vector_4" d="M47.8214 53.5H53.1785" stroke="white" stroke-width="2" stroke-linecap="round" stroke-linejoin="round"/>
</g>
</g>
</g>
</svg>
