<svg width="28" height="25" viewBox="0 0 28 25" fill="none" xmlns="http://www.w3.org/2000/svg">
<path d="M27.2312 13.2311C28.2563 12.206 28.2563 10.544 27.2312 9.51884L18.4812 0.768857C17.456 -0.256258 15.794 -0.256313 14.7688 0.768857L0.768837 14.7688C-0.256279 15.794 -0.256279 17.456 0.768837 18.4811L6.01883 23.7311C6.51114 24.2234 7.17882 24.5 7.87503 24.5H27.3438C27.7062 24.5 28 24.2061 28 23.8437V21.6562C28 21.2938 27.7062 21 27.3438 21H19.4624L27.2312 13.2311ZM10.6813 9.80623L18.1938 17.3188L14.5126 21H8.2375L3.8625 16.625L10.6813 9.80623Z" fill="#00BA9B"/>
</svg>
