<svg width="18" height="19" viewBox="0 0 18 19" fill="none" xmlns="http://www.w3.org/2000/svg">
<path id="Vector" d="M16.3219 4.38267L13.4714 1.62292C12.3889 0.576333 10.9505 0 9.42136 0H5.72727C3.47155 0 1.63636 1.77571 1.63636 3.95833V8.70833C1.63636 9.14533 2.00209 9.5 2.45455 9.5C2.907 9.5 3.27273 9.14533 3.27273 8.70833V3.95833C3.27273 2.64892 4.374 1.58333 5.72727 1.58333H9.42136C9.55473 1.58333 9.68727 1.58967 9.81818 1.60154V5.54167C9.81818 6.85108 10.9195 7.91667 12.2727 7.91667H16.3448C16.3571 8.04333 16.3636 8.17158 16.3636 8.30062V15.0417C16.3636 16.3511 15.2624 17.4167 13.9091 17.4167H5.72727C4.374 17.4167 3.27273 16.3511 3.27273 15.0417C3.27273 14.6047 2.907 14.25 2.45455 14.25C2.00209 14.25 1.63636 14.6047 1.63636 15.0417C1.63636 17.2243 3.47155 19 5.72727 19H13.9091C16.1648 19 18 17.2243 18 15.0417V8.30062C18 6.81942 17.4035 5.42925 16.3219 4.38267ZM12.2727 6.33333C11.8211 6.33333 11.4545 5.97788 11.4545 5.54167V2.10504C11.7655 2.27763 12.0543 2.49058 12.3145 2.74233L15.165 5.50208C15.4252 5.75304 15.6453 6.0325 15.8236 6.33333H12.2719H12.2727ZM8.50745 12.6667H0.818182C0.365727 12.6667 0 12.312 0 11.875C0 11.438 0.365727 11.0833 0.818182 11.0833H8.50745L7.44954 10.0597C7.12964 9.75017 7.12964 9.24904 7.44954 8.94029C7.76945 8.63075 8.28655 8.63075 8.60645 8.94029L9.92618 10.218C10.8704 11.1316 10.8704 12.6184 9.92618 13.5328L8.60645 14.8105C8.44691 14.9649 8.23745 15.0425 8.028 15.0425C7.81855 15.0425 7.60909 14.9649 7.44954 14.8105C7.12964 14.5018 7.12964 14.0006 7.44954 13.6911L8.50745 12.6667Z" fill="black"/>
</svg>
