<svg width="18" height="22" viewBox="0 0 18 22" fill="none" xmlns="http://www.w3.org/2000/svg">
<path id="Vector" d="M16.155 5.07833L13.014 1.87917C11.826 0.669167 10.242 0 8.559 0H4.5C2.016 0 0 2.05333 0 4.58333V17.4167C0 19.9467 2.016 22 4.5 22H13.5C15.984 22 18 19.9467 18 17.4167V9.61583C18 7.90167 17.343 6.28833 16.155 5.07833ZM14.886 6.37083C15.174 6.66417 15.417 6.985 15.615 7.33333H11.709C11.214 7.33333 10.809 6.92083 10.809 6.41667V2.43833C11.151 2.64 11.466 2.8875 11.754 3.18083L14.895 6.38L14.886 6.37083ZM16.2 17.4167C16.2 18.9292 14.985 20.1667 13.5 20.1667H4.5C3.015 20.1667 1.8 18.9292 1.8 17.4167V4.58333C1.8 3.07083 3.015 1.83333 4.5 1.83333H8.559C8.703 1.83333 8.856 1.83333 9 1.85167V6.41667C9 7.92917 10.215 9.16667 11.7 9.16667H16.182C16.2 9.31333 16.2 9.46 16.2 9.61583V17.4167ZM4.581 11.9167H3.6C3.105 11.9167 2.7 12.3292 2.7 12.8333V16.9033C2.7 17.2242 2.952 17.4717 3.258 17.4717C3.564 17.4717 3.816 17.215 3.816 16.9033V15.785H4.572C5.634 15.785 6.498 14.9142 6.498 13.8508C6.498 12.7875 5.634 11.9167 4.572 11.9167H4.581ZM4.581 14.6392H3.834V13.0625H4.59C5.022 13.0625 5.391 13.42 5.391 13.8508C5.391 14.2817 5.022 14.6392 4.59 14.6392H4.581ZM15.318 12.4942C15.318 12.815 15.066 13.0625 14.76 13.0625H13.239V14.1075H14.355C14.67 14.1075 14.913 14.3642 14.913 14.6758C14.913 14.9875 14.661 15.2442 14.355 15.2442H13.239V16.8942C13.239 17.215 12.987 17.4625 12.681 17.4625C12.375 17.4625 12.123 17.2058 12.123 16.8942V12.485C12.123 12.1642 12.375 11.9167 12.681 11.9167H14.76C15.075 11.9167 15.318 12.1733 15.318 12.485V12.4942ZM9.081 11.9258H8.1C7.605 11.9258 7.2 12.3383 7.2 12.8425V16.9125C7.2 17.2333 7.452 17.4258 7.758 17.4258C8.064 17.4258 9.072 17.4258 9.072 17.4258C10.134 17.4258 10.998 16.555 10.998 15.4917V13.86C10.998 12.7967 10.134 11.9258 9.072 11.9258H9.081ZM9.882 15.4917C9.882 15.9225 9.513 16.28 9.081 16.28H8.334V13.0717H9.09C9.522 13.0717 9.891 13.4292 9.891 13.86V15.4917H9.882Z" fill="black"/>
</svg>
