<svg width="76" height="76" viewBox="0 0 76 76" fill="none" xmlns="http://www.w3.org/2000/svg">
<g id="Group 33">
<circle id="Ellipse 1" cx="38" cy="38" r="38" fill="#3C39D1"/>
<path id="Vector" d="M24.5666 33.4389L36.072 40.341C36.6669 40.6979 37.3331 40.8764 38.0004 40.8764C38.6665 40.8764 39.3339 40.6979 39.9288 40.341L51.433 33.4389C51.7842 33.2278 51.9988 32.8487 51.9988 32.4392C51.9988 32.0298 51.7842 31.6495 51.433 31.4395L39.93 24.5363C38.7389 23.8212 37.2619 23.8212 36.072 24.5363L24.5666 31.4384C24.2155 31.6495 24.0008 32.0286 24.0008 32.4381C24.0008 32.8475 24.2155 33.2278 24.5666 33.4377V33.4389ZM37.2724 26.5368C37.7204 26.2685 38.2792 26.2685 38.7284 26.5368L48.5654 32.4392L38.7284 38.3416C38.2792 38.6099 37.7204 38.6099 37.2713 38.3416L27.4354 32.4381L37.2724 26.5368ZM52 47.3341C52 47.9791 51.4773 48.5005 50.8334 48.5005H48.5001V50.8335C48.5001 51.4786 47.9774 52 47.3335 52C46.6895 52 46.1668 51.4786 46.1668 50.8335V48.5005H43.8336C43.1896 48.5005 42.6669 47.9791 42.6669 47.3341C42.6669 46.689 43.1896 46.1676 43.8336 46.1676H46.1668V43.8346C46.1668 43.1895 46.6895 42.6681 47.3335 42.6681C47.9774 42.6681 48.5001 43.1895 48.5001 43.8346V46.1676H50.8334C51.4773 46.1676 52 46.689 52 47.3341ZM39.0002 51.1671C38.7809 51.5311 38.3947 51.7329 37.9992 51.7329C37.7951 51.7329 37.5874 51.6792 37.3996 51.5661L24.5666 43.8684C24.0136 43.5372 23.8351 42.8209 24.1665 42.268C24.4966 41.7151 25.2129 41.5355 25.7671 41.8679L38.6 49.5667C39.153 49.898 39.3315 50.6142 39.0002 51.1671ZM51.8332 36.9407C52.1645 37.4936 51.986 38.2098 51.433 38.5411L38.6 46.2399C38.4146 46.3507 38.2081 46.4067 37.9992 46.4067C37.7904 46.4067 37.5839 46.3507 37.3984 46.2399L24.5666 38.5411C24.0136 38.2098 23.8351 37.4936 24.1665 36.9407C24.4966 36.3866 25.2129 36.2081 25.7671 36.5406L37.9992 43.8789L50.2314 36.5406C50.7844 36.2093 51.5018 36.3878 51.8332 36.9407Z" fill="white"/>
</g>
</svg>
