<svg width="29" height="26" viewBox="0 0 29 26" fill="none" xmlns="http://www.w3.org/2000/svg">
<path id="Vector" d="M26.6522 5.02026L17.7421 0.872951C15.7808 -0.271676 13.3397 -0.291985 11.3587 0.819826L2.3484 5.02026C2.31458 5.0368 2.27952 5.05451 2.2469 5.07338C0.108657 6.26793 -0.633656 8.92989 0.588957 11.019C1.00339 11.7273 1.61299 12.3075 2.3484 12.6939L4.83389 13.8509V19.6356C4.83537 22.2223 6.55805 24.5076 9.08591 25.2763C10.8451 25.7736 12.6691 26.017 14.5003 25.9988C16.3312 26.0189 18.1553 25.7775 19.9148 25.2823C22.4426 24.5136 24.1653 22.2282 24.1668 19.6415V13.8485L26.5834 12.7199V22.4571C26.5834 23.1091 27.1244 23.6377 27.7917 23.6377C28.459 23.6377 29 23.1091 29 22.4571V8.29039C29.008 6.9041 27.8877 5.62345 26.6522 5.02026ZM21.7501 19.6415C21.7507 21.1887 20.7233 22.5573 19.2127 23.0215C17.6808 23.4491 16.0934 23.6567 14.5003 23.6377C12.9072 23.6567 11.3198 23.4491 9.7879 23.0215C8.27727 22.5573 7.24984 21.1887 7.25046 19.6415V14.976L11.2584 16.8413C12.2473 17.415 13.3768 17.7165 14.5269 17.7137C15.6216 17.7213 16.6979 17.4381 17.6407 16.8944L21.7501 14.9759V19.6415ZM25.6167 10.563L16.5037 14.813C15.233 15.5359 13.658 15.5154 12.4075 14.7599L3.49143 10.6161C2.49758 10.0925 2.12637 8.88086 2.66229 7.90988C2.84354 7.5815 3.11529 7.30929 3.44674 7.12402L12.503 2.89763C13.774 2.17634 15.3481 2.19676 16.5991 2.95076L25.5091 7.09806C26.1644 7.45356 26.5743 8.12487 26.5833 8.85712C26.5845 9.55073 26.2189 10.1958 25.6167 10.563Z" fill="#9493B3"/>
</svg>
