<svg width="76" height="76" viewBox="0 0 76 76" fill="none" xmlns="http://www.w3.org/2000/svg">
<g id="Group 87">
<circle id="Ellipse 16" cx="38" cy="38" r="38" fill="white"/>
<g id="Group 84">
<path id="Vector" d="M48.1109 25H27.8889C26.2934 25 25 26.2934 25 27.8889V48.1109C25 49.7063 26.2934 50.9997 27.8889 50.9997H48.1109C49.7063 50.9997 50.9997 49.7063 50.9997 48.1109V27.8889C50.9997 26.2934 49.7063 25 48.1109 25Z" stroke="#C8C8C8" stroke-width="2" stroke-linecap="round" stroke-linejoin="round"/>
<path id="Vector_2" d="M32.9445 35.1114C34.1411 35.1114 35.1112 34.1413 35.1112 32.9447C35.1112 31.7481 34.1411 30.7781 32.9445 30.7781C31.7479 30.7781 30.7779 31.7481 30.7779 32.9447C30.7779 34.1413 31.7479 35.1114 32.9445 35.1114Z" stroke="#C8C8C8" stroke-width="2" stroke-linecap="round" stroke-linejoin="round"/>
<path id="Vector_3" d="M51.0001 42.3332L43.7779 35.1111L27.8892 50.9998" stroke="#C8C8C8" stroke-width="2" stroke-linecap="round" stroke-linejoin="round"/>
</g>
<g id="Group 1449">
<circle id="Ellipse 45" cx="53.5" cy="53.5" r="7.5" fill="#00BA9B"/>
<g id="Group 1448">
<path id="Vector_4" d="M53.4999 50.8213V56.1784" stroke="white" stroke-width="2" stroke-linecap="round" stroke-linejoin="round"/>
<path id="Vector_5" d="M50.8214 53.5H56.1785" stroke="white" stroke-width="2" stroke-linecap="round" stroke-linejoin="round"/>
</g>
</g>
</g>
</svg>
