<svg width="25" height="25" viewBox="0 0 25 25" fill="none" xmlns="http://www.w3.org/2000/svg">
<path d="M21.1475 1.38159H3.85232C2.48778 1.38159 1.38159 2.48778 1.38159 3.85232V21.1475C1.38159 22.512 2.48778 23.6182 3.85232 23.6182H21.1475C22.512 23.6182 23.6182 22.512 23.6182 21.1475V3.85232C23.6182 2.48778 22.512 1.38159 21.1475 1.38159Z" stroke="#C0C0C0" stroke-width="2" stroke-linecap="round" stroke-linejoin="round"/>
<path d="M8.17654 10.0295C9.19995 10.0295 10.0296 9.19983 10.0296 8.17641C10.0296 7.153 9.19995 6.32336 8.17654 6.32336C7.15313 6.32336 6.32349 7.153 6.32349 8.17641C6.32349 9.19983 7.15313 10.0295 8.17654 10.0295Z" stroke="#C0C0C0" stroke-width="2" stroke-linecap="round" stroke-linejoin="round"/>
<path d="M23.6187 16.206L17.4418 10.0292L3.85278 23.6182" stroke="#C0C0C0" stroke-width="2" stroke-linecap="round" stroke-linejoin="round"/>
</svg>
