<svg width="18" height="17" viewBox="0 0 18 17" fill="none" xmlns="http://www.w3.org/2000/svg">
<path id="Vector" d="M16.5427 3.28248L11.0124 0.570776C9.795 -0.177634 8.2798 -0.190914 7.05021 0.53604L1.45763 3.28248C1.43664 3.2933 1.41488 3.30487 1.39463 3.31721C0.0674424 4.09826 -0.393304 5.83877 0.36556 7.20475C0.622791 7.66782 1.00117 8.04724 1.45763 8.29987L3.00035 9.05635V12.8387C3.00126 14.53 4.07051 16.0242 5.63953 16.5268C6.73142 16.8519 7.8636 17.0111 9.00021 16.9992C10.1366 17.0123 11.2688 16.8545 12.3609 16.5307C13.9299 16.0281 14.9991 14.5338 15.0001 12.8425V9.05479L16.5 8.31684V14.6835C16.5 15.1098 16.8358 15.4554 17.25 15.4554C17.6642 15.4554 18 15.1098 18 14.6835V5.42064C18.005 4.51422 17.3096 3.67687 16.5427 3.28248ZM13.5001 12.8425C13.5004 13.8542 12.8627 14.749 11.9251 15.0525C10.9743 15.3321 9.98899 15.4678 9.00017 15.4554C8.01136 15.4678 7.02606 15.3321 6.07525 15.0525C5.13762 14.749 4.4999 13.8542 4.50029 12.8425V9.79198L6.98798 11.0116C7.6018 11.3868 8.30283 11.5839 9.01669 11.582C9.69618 11.587 10.3642 11.4018 10.9494 11.0463L13.5001 9.79195V12.8425ZM15.9 6.90657L10.2437 9.68543C9.45498 10.1581 8.47741 10.1447 7.70122 9.65069L2.1671 6.9413C1.55022 6.59894 1.31982 5.80671 1.65246 5.17185C1.76495 4.95714 1.93363 4.77915 2.13936 4.65801L7.76045 1.8946C8.54937 1.42299 9.52641 1.43635 10.3029 1.92934L15.8332 4.64104C16.24 4.87348 16.4944 5.31242 16.5 5.79119C16.5007 6.24471 16.2738 6.66646 15.9 6.90657Z" fill="black"/>
</svg>
