<svg width="76" height="76" viewBox="0 0 76 76" fill="none" xmlns="http://www.w3.org/2000/svg">
<circle cx="38" cy="38" r="38" fill="#00BA9B"/>
<path d="M32.5 45C31.8125 45 31.224 44.7552 30.7344 44.2656C30.2448 43.776 30 43.1875 30 42.5V40H32.5V42.5H47.5V30H32.5V32.5H30V27.5C30 26.8125 30.2448 26.224 30.7344 25.7344C31.224 25.2448 31.8125 25 32.5 25H47.5C48.1875 25 48.776 25.2448 49.2656 25.7344C49.7552 26.224 50 26.8125 50 27.5V42.5C50 43.1875 49.7552 43.776 49.2656 44.2656C48.776 44.7552 48.1875 45 47.5 45H32.5ZM27.5 50C26.8125 50 26.224 49.7552 25.7344 49.2656C25.2448 48.776 25 48.1875 25 47.5V30H27.5V47.5H45V50H27.5ZM38.75 41.25L37 39.5L38.9688 37.5H30V35H38.9688L37 33L38.75 31.25L43.75 36.25L38.75 41.25Z" fill="white"/>
</svg>
