<svg width="15" height="14" viewBox="0 0 15 14" fill="none" xmlns="http://www.w3.org/2000/svg">
<path d="M4.61108 3.00012H14.0002" stroke="#DEDEDE" stroke-width="2" stroke-linecap="round" stroke-linejoin="round"/>
<path d="M4.61108 7.33362H14.0002" stroke="#DEDEDE" stroke-width="2" stroke-linecap="round" stroke-linejoin="round"/>
<path d="M4.61108 11.6671H14.0002" stroke="#DEDEDE" stroke-width="2" stroke-linecap="round" stroke-linejoin="round"/>
<path d="M2.16797 4.30005H1.38477V2.88794C1.38477 2.8619 1.38477 2.81437 1.38477 2.74536C1.38477 2.67505 1.38542 2.59757 1.38672 2.51294C1.38932 2.4283 1.39258 2.35213 1.39648 2.28442C1.36263 2.32479 1.33073 2.35929 1.30078 2.38794C1.27214 2.41659 1.24414 2.44328 1.2168 2.46802L0.892578 2.7356L0.492188 2.24341L1.47266 1.44458H2.16797V4.30005Z" fill="#DEDEDE"/>
<path d="M2.51953 8.50012H0.447266V7.99231L1.14453 7.28723C1.28906 7.13619 1.40104 7.0151 1.48047 6.92395C1.5612 6.8328 1.61784 6.75533 1.65039 6.69153C1.68294 6.62773 1.69922 6.56132 1.69922 6.49231C1.69922 6.40767 1.67188 6.34648 1.61719 6.30872C1.5625 6.27096 1.49805 6.25208 1.42383 6.25208C1.33398 6.25208 1.24284 6.27812 1.15039 6.3302C1.05924 6.38098 0.955729 6.4565 0.839844 6.55676L0.416016 6.06067C0.501953 5.98385 0.593099 5.91093 0.689453 5.84192C0.785807 5.77161 0.89974 5.71431 1.03125 5.67004C1.16276 5.62577 1.32292 5.60364 1.51172 5.60364C1.70573 5.60364 1.8737 5.63749 2.01562 5.7052C2.15885 5.77291 2.26953 5.86601 2.34766 5.9845C2.42578 6.10168 2.46484 6.23515 2.46484 6.38489C2.46484 6.55025 2.43424 6.69804 2.37305 6.82825C2.31315 6.95715 2.22266 7.08671 2.10156 7.21692C1.98047 7.34583 1.82943 7.49231 1.64844 7.65637L1.43945 7.84387V7.8634H2.51953V8.50012Z" fill="#DEDEDE"/>
<path d="M2.42383 10.7638C2.42383 10.8992 2.39453 11.0164 2.33594 11.1154C2.27865 11.213 2.20182 11.2931 2.10547 11.3556C2.01042 11.4181 1.90625 11.465 1.79297 11.4962V11.5079C2.02083 11.5366 2.19661 11.6062 2.32031 11.7169C2.44531 11.8263 2.50781 11.9819 2.50781 12.1837C2.50781 12.34 2.46615 12.4832 2.38281 12.6134C2.29948 12.7423 2.16992 12.8458 1.99414 12.924C1.81836 13.0008 1.59245 13.0392 1.31641 13.0392C1.13151 13.0392 0.973958 13.0255 0.84375 12.9982C0.713542 12.9708 0.58724 12.9331 0.464844 12.8849V12.2443C0.588542 12.3081 0.715495 12.3556 0.845703 12.3868C0.977214 12.4168 1.09701 12.4318 1.20508 12.4318C1.39258 12.4318 1.52018 12.4051 1.58789 12.3517C1.6569 12.2983 1.69141 12.2267 1.69141 12.1368C1.69141 12.0717 1.67513 12.0164 1.64258 11.9708C1.61003 11.9253 1.54948 11.8901 1.46094 11.8654C1.3737 11.8406 1.24805 11.8282 1.08398 11.8282H0.908203V11.2482H1.08789C1.23372 11.2482 1.34896 11.2351 1.43359 11.2091C1.51953 11.1831 1.58138 11.1479 1.61914 11.1036C1.6569 11.0581 1.67578 11.006 1.67578 10.9474C1.67578 10.8719 1.64648 10.8159 1.58789 10.7794C1.5293 10.743 1.45182 10.7247 1.35547 10.7247C1.26953 10.7247 1.1888 10.7365 1.11328 10.7599C1.03776 10.7833 0.972005 10.8094 0.916016 10.838C0.860026 10.8667 0.817708 10.8901 0.789062 10.9083L0.46875 10.3927C0.58724 10.312 0.722656 10.2436 0.875 10.1876C1.02865 10.1316 1.22917 10.1036 1.47656 10.1036C1.77083 10.1036 2.00195 10.1622 2.16992 10.2794C2.33919 10.3966 2.42383 10.5581 2.42383 10.7638Z" fill="#DEDEDE"/>
</svg>
