<svg width="29" height="29" viewBox="0 0 29 29" fill="none" xmlns="http://www.w3.org/2000/svg">
<mask id="path-1-inside-1_225_491" fill="white">
<path d="M27.715 1.28562C26.8905 0.462383 25.773 0 24.6079 0C23.4428 0 22.3254 0.462383 21.5009 1.28562L1.7767 21.0102C1.21186 21.5719 0.764005 22.24 0.459042 22.9759C0.154079 23.7117 -0.00193795 24.5008 1.81685e-05 25.2974V27.7872C1.81685e-05 28.1088 0.12779 28.4173 0.355225 28.6448C0.58266 28.8722 0.891127 29 1.21277 29H3.70255C4.49904 29.0022 5.28806 28.8465 6.02394 28.5417C6.75982 28.2369 7.42794 27.7892 7.98962 27.2245L27.715 7.49867C28.5379 6.67422 29 5.55697 29 4.39214C29 3.22732 28.5379 2.11007 27.715 1.28562ZM6.27479 25.5096C5.5908 26.1891 4.66664 26.5716 3.70255 26.5744H2.42552V25.2974C2.42429 24.8194 2.51788 24.346 2.70086 23.9044C2.88384 23.4629 3.15258 23.062 3.49153 22.7251L18.4605 7.75578L21.2498 10.5452L6.27479 25.5096ZM25.999 5.7838L22.9598 8.82423L20.1705 6.04091L23.2109 3.00048C23.394 2.81773 23.6114 2.67284 23.8505 2.57408C24.0896 2.47533 24.3459 2.42465 24.6046 2.42493C24.8634 2.42521 25.1195 2.47645 25.3584 2.57572C25.5974 2.675 25.8144 2.82036 25.9972 3.00352C26.1799 3.18667 26.3248 3.40403 26.4235 3.64318C26.5223 3.88232 26.573 4.13858 26.5727 4.39732C26.5724 4.65606 26.5212 4.91221 26.4219 5.15114C26.3226 5.39007 26.1773 5.60711 25.9941 5.78987L25.999 5.7838Z"/>
</mask>
<path d="M27.715 1.28562C26.8905 0.462383 25.773 0 24.6079 0C23.4428 0 22.3254 0.462383 21.5009 1.28562L1.7767 21.0102C1.21186 21.5719 0.764005 22.24 0.459042 22.9759C0.154079 23.7117 -0.00193795 24.5008 1.81685e-05 25.2974V27.7872C1.81685e-05 28.1088 0.12779 28.4173 0.355225 28.6448C0.58266 28.8722 0.891127 29 1.21277 29H3.70255C4.49904 29.0022 5.28806 28.8465 6.02394 28.5417C6.75982 28.2369 7.42794 27.7892 7.98962 27.2245L27.715 7.49867C28.5379 6.67422 29 5.55697 29 4.39214C29 3.22732 28.5379 2.11007 27.715 1.28562ZM6.27479 25.5096C5.5908 26.1891 4.66664 26.5716 3.70255 26.5744H2.42552V25.2974C2.42429 24.8194 2.51788 24.346 2.70086 23.9044C2.88384 23.4629 3.15258 23.062 3.49153 22.7251L18.4605 7.75578L21.2498 10.5452L6.27479 25.5096ZM25.999 5.7838L22.9598 8.82423L20.1705 6.04091L23.2109 3.00048C23.394 2.81773 23.6114 2.67284 23.8505 2.57408C24.0896 2.47533 24.3459 2.42465 24.6046 2.42493C24.8634 2.42521 25.1195 2.47645 25.3584 2.57572C25.5974 2.675 25.8144 2.82036 25.9972 3.00352C26.1799 3.18667 26.3248 3.40403 26.4235 3.64318C26.5223 3.88232 26.573 4.13858 26.5727 4.39732C26.5724 4.65606 26.5212 4.91221 26.4219 5.15114C26.3226 5.39007 26.1773 5.60711 25.9941 5.78987L25.999 5.7838Z" fill="#00C9A8"/>
<path d="M27.715 1.28562L42.8146 -13.7846L42.8016 -13.7977L42.7885 -13.8107L27.715 1.28562ZM24.6079 0V-21.3333V0ZM21.5009 1.28562L6.42736 -13.8107L6.42157 -13.805L6.41578 -13.7992L21.5009 1.28562ZM1.7767 21.0102L16.8192 36.1375L16.8405 36.1163L16.8618 36.095L1.7767 21.0102ZM1.81685e-05 25.2974H21.3334V25.2712L21.3333 25.245L1.81685e-05 25.2974ZM1.81685e-05 27.7872H-21.3333H1.81685e-05ZM3.70255 29L3.76278 7.66673L3.73266 7.66664H3.70255V29ZM7.98962 27.2245L-7.09548 12.1397L-7.11588 12.1601L-7.13623 12.1805L7.98962 27.2245ZM27.715 7.49867L42.8001 22.5835L42.8074 22.5762L42.8146 22.5689L27.715 7.49867ZM6.27479 25.5096L21.3095 40.6446L21.332 40.6223L21.3544 40.5999L6.27479 25.5096ZM3.70255 26.5744V47.9078H3.7334L3.76426 47.9077L3.70255 26.5744ZM2.42552 26.5744H-18.9078V47.9078H2.42552V26.5744ZM2.42552 25.2974H23.7589V25.27L23.7588 25.2426L2.42552 25.2974ZM3.49153 22.7251L18.5323 37.854L18.5545 37.832L18.5766 37.8099L3.49153 22.7251ZM18.4605 7.75578L33.5456 -7.32901L18.4605 -22.4144L3.37541 -7.32901L18.4605 7.75578ZM21.2498 10.5452L36.3294 25.6355L51.4249 10.5507L36.3349 -4.53962L21.2498 10.5452ZM25.999 5.7838L42.6583 19.1097L10.9109 -9.29798L25.999 5.7838ZM22.9598 8.82423L7.89113 23.9254L22.9792 38.981L38.0479 23.906L22.9598 8.82423ZM20.1705 6.04091L5.08539 -9.04388L-10.0155 6.05733L5.10181 21.1421L20.1705 6.04091ZM23.2109 3.00048L8.14218 -12.1007L8.13396 -12.0925L8.12576 -12.0843L23.2109 3.00048ZM25.9941 5.78987L9.33483 -7.53602L41.0628 20.8911L25.9941 5.78987ZM42.7885 -13.8107C37.9642 -18.6277 31.4255 -21.3333 24.6079 -21.3333V21.3333C20.1206 21.3333 15.8168 19.5525 12.6415 16.382L42.7885 -13.8107ZM24.6079 -21.3333C17.7904 -21.3333 11.2516 -18.6277 6.42736 -13.8107L36.5744 16.382C33.3991 19.5525 29.0953 21.3333 24.6079 21.3333V-21.3333ZM6.41578 -13.7992L-13.3084 5.92542L16.8618 36.095L36.586 16.3704L6.41578 -13.7992ZM-13.2658 5.88294C-15.8306 8.43336 -17.8642 11.4671 -19.249 14.8085L20.167 31.1432C19.3922 33.0129 18.2543 34.7104 16.8192 36.1375L-13.2658 5.88294ZM-19.249 14.8085C-20.6337 18.1499 -21.3421 21.7328 -21.3333 25.3498L21.3333 25.245C21.3383 27.2688 20.9419 29.2736 20.167 31.1432L-19.249 14.8085ZM-21.3333 25.2974V27.7872H21.3334V25.2974H-21.3333ZM-21.3333 27.7872C-21.3333 33.7666 -18.958 39.5013 -14.7299 43.7295L15.4403 13.56C19.2136 17.3334 21.3334 22.4511 21.3334 27.7872H-21.3333ZM-14.7299 43.7295C-10.5017 47.9578 -4.76693 50.3333 1.21277 50.3333V7.66664C6.54918 7.66664 11.667 9.78656 15.4403 13.56L-14.7299 43.7295ZM1.21277 50.3333H3.70255V7.66664H1.21277V50.3333ZM3.64231 50.3332C7.26023 50.3434 10.8442 49.6359 14.1868 48.2515L-2.13895 8.83184C-0.268118 8.05702 1.73784 7.66101 3.76278 7.66673L3.64231 50.3332ZM14.1868 48.2515C17.5294 46.8672 20.5642 44.8336 23.1155 42.2684L-7.13623 12.1805C-5.70833 10.7449 -4.0098 9.60665 -2.13895 8.83184L14.1868 48.2515ZM23.0747 42.3093L42.8001 22.5835L12.6299 -7.58612L-7.09548 12.1397L23.0747 42.3093ZM42.8146 22.5689C47.6293 17.7448 50.3333 11.2077 50.3333 4.39214H7.66666C7.66666 -0.0937012 9.44639 -4.39641 12.6154 -7.57159L42.8146 22.5689ZM50.3333 4.39214C50.3333 -2.42336 47.6293 -8.96055 42.8146 -13.7846L12.6154 16.3559C9.44639 13.1807 7.66666 8.87799 7.66666 4.39214H50.3333ZM-8.75995 10.3746C-5.46253 7.09904 -1.00714 5.25463 3.64083 5.24118L3.76426 47.9077C10.3404 47.8886 16.6441 45.2791 21.3095 40.6446L-8.75995 10.3746ZM3.70255 5.24109H2.42552V47.9078H3.70255V5.24109ZM23.7589 26.5744V25.2974H-18.9078V26.5744H23.7589ZM23.7588 25.2426C23.7648 27.5859 23.306 29.907 22.4089 32.0718L-17.0071 15.7371C-18.2702 18.7849 -18.9162 22.053 -18.9077 25.3521L23.7588 25.2426ZM22.4089 32.0718C21.5118 34.2365 20.1942 36.2019 18.5323 37.854L-11.5493 7.59611C-13.889 9.92221 -15.7441 12.6893 -17.0071 15.7371L22.4089 32.0718ZM18.5766 37.8099L33.5456 22.8406L3.37541 -7.32901L-11.5936 7.64028L18.5766 37.8099ZM3.37541 22.8406L6.16473 25.6299L36.3349 -4.53962L33.5456 -7.32901L3.37541 22.8406ZM6.17024 -4.54512L-8.80481 10.4193L21.3544 40.5999L36.3294 25.6355L6.17024 -4.54512ZM10.9109 -9.29798L7.87171 -6.25755L38.0479 23.906L41.0871 20.8656L10.9109 -9.29798ZM38.0285 -6.27696L35.2392 -9.06028L5.10181 21.1421L7.89113 23.9254L38.0285 -6.27696ZM35.2556 21.1257L38.296 18.0853L8.12576 -12.0843L5.08539 -9.04388L35.2556 21.1257ZM38.2795 18.1017C36.4796 19.8977 34.3435 21.3217 31.9931 22.2923L15.7079 -17.1442C12.8792 -15.9761 10.3084 -14.2623 8.14218 -12.1007L38.2795 18.1017ZM31.9931 22.2923C29.6428 23.2629 27.1243 23.761 24.5814 23.7582L24.6278 -18.9084C21.5675 -18.9117 18.5365 -18.3122 15.7079 -17.1442L31.9931 22.2923ZM24.5814 23.7582C22.0386 23.7555 19.5212 23.2519 17.1729 22.2762L33.5439 -17.1248C30.7179 -18.299 27.6882 -18.9051 24.6278 -18.9084L24.5814 23.7582ZM17.1729 22.2762C14.8247 21.3005 12.6917 19.8719 10.8956 18.0719L41.0987 -12.0648C38.9371 -14.2312 36.37 -15.9505 33.5439 -17.1248L17.1729 22.2762ZM10.8956 18.0719C9.0996 16.2719 7.67568 14.1358 6.70518 11.7855L46.1419 -4.49914C44.9739 -7.32772 43.2602 -9.89855 41.0987 -12.0648L10.8956 18.0719ZM6.70518 11.7855C5.73465 9.43515 5.23661 6.91676 5.23937 4.37411L47.906 4.42053C47.9093 1.36041 47.3099 -1.6705 46.1419 -4.49914L6.70518 11.7855ZM5.23937 4.37411C5.24214 1.83138 5.7457 -0.68592 6.72131 -3.03407L46.1225 13.3364C47.2967 10.5103 47.9027 7.48073 47.906 4.42053L5.23937 4.37411ZM6.72131 -3.03407C7.69691 -5.38221 9.12547 -7.51523 10.9254 -9.31133L41.0628 20.8911C43.2291 18.7295 44.9483 16.1624 46.1225 13.3364L6.72131 -3.03407ZM42.6534 19.1158L42.6583 19.1097L9.33968 -7.54208L9.33483 -7.53602L42.6534 19.1158Z" fill="#00C9A8" mask="url(#path-1-inside-1_225_491)"/>
</svg>
