<svg width="17" height="22" viewBox="0 0 17 22" fill="none" xmlns="http://www.w3.org/2000/svg">
<path d="M8.1053 11C9.13584 11 10.1432 10.6774 11.0001 10.0731C11.857 9.46873 12.5248 8.60975 12.9192 7.60476C13.3136 6.59977 13.4168 5.4939 13.2157 4.427C13.0147 3.36011 12.5184 2.3801 11.7897 1.61091C11.061 0.841726 10.1326 0.317902 9.12182 0.105683C8.11108 -0.106535 7.06342 0.00238307 6.11132 0.418665C5.15922 0.834947 4.34545 1.5399 3.77291 2.44437C3.20037 3.34884 2.89478 4.4122 2.89478 5.5C2.89615 6.95824 3.44556 8.35635 4.42243 9.38748C5.39929 10.4186 6.72381 10.9985 8.1053 11ZM8.1053 1.83334C8.79233 1.83334 9.46393 2.04838 10.0352 2.45128C10.6064 2.85418 11.0517 3.42683 11.3146 4.09683C11.5775 4.76682 11.6463 5.50407 11.5122 6.21533C11.3782 6.9266 11.0474 7.57993 10.5616 8.09273C10.0758 8.60552 9.45681 8.95473 8.78298 9.09621C8.10915 9.23769 7.41071 9.16508 6.77598 8.88756C6.14125 8.61004 5.59873 8.14007 5.21704 7.53709C4.83535 6.93411 4.63162 6.2252 4.63162 5.5C4.63162 4.52754 4.99759 3.59491 5.64903 2.90728C6.30048 2.21964 7.18402 1.83334 8.1053 1.83334Z" fill="black"/>
<path d="M8.10526 12.7369C5.95635 12.7393 3.89612 13.6185 2.37661 15.1814C0.857094 16.7443 0.00238372 18.8634 0 21.0737C0 21.3194 0.0948827 21.555 0.263775 21.7287C0.432668 21.9024 0.661735 22 0.900585 22C1.13943 22 1.3685 21.9024 1.53739 21.7287C1.70629 21.555 1.80117 21.3194 1.80117 21.0737C1.80117 19.354 2.46535 17.7047 3.6476 16.4887C4.82984 15.2727 6.43331 14.5895 8.10526 14.5895C9.77721 14.5895 11.3807 15.2727 12.5629 16.4887C13.7452 17.7047 14.4094 19.354 14.4094 21.0737C14.4094 21.3194 14.5042 21.555 14.6731 21.7287C14.842 21.9024 15.0711 22 15.3099 22C15.5488 22 15.7779 21.9024 15.9468 21.7287C16.1156 21.555 16.2105 21.3194 16.2105 21.0737C16.2081 18.8634 15.3534 16.7443 13.8339 15.1814C12.3144 13.6185 10.2542 12.7393 8.10526 12.7369Z" fill="black"/>
</svg>
