<svg width="76" height="76" viewBox="0 0 76 76" fill="none" xmlns="http://www.w3.org/2000/svg">
<g id="Group 32">
<circle id="Ellipse 1" cx="38" cy="38" r="38" fill="#CD0000"/>
<g id="Group 47">
<path id="Vector" d="M48.1667 28.6667H44.55C44.2792 27.35 43.5628 26.1669 42.5215 25.3168C41.4801 24.4668 40.1776 24.0017 38.8333 24H36.5C35.1558 24.0017 33.8532 24.4668 32.8119 25.3168C31.7705 26.1669 31.0541 27.35 30.7833 28.6667H27.1667C26.8572 28.6667 26.5605 28.7896 26.3417 29.0084C26.1229 29.2272 26 29.5239 26 29.8333C26 30.1428 26.1229 30.4395 26.3417 30.6583C26.5605 30.8771 26.8572 31 27.1667 31H28.3333V46.1667C28.3352 47.7132 28.9504 49.1959 30.0439 50.2894C31.1375 51.383 32.6201 51.9981 34.1667 52H41.1667C42.7132 51.9981 44.1959 51.383 45.2894 50.2894C46.383 49.1959 46.9981 47.7132 47 46.1667V31H48.1667C48.4761 31 48.7728 30.8771 48.9916 30.6583C49.2104 30.4395 49.3333 30.1428 49.3333 29.8333C49.3333 29.5239 49.2104 29.2272 48.9916 29.0084C48.7728 28.7896 48.4761 28.6667 48.1667 28.6667ZM36.5 26.3333H38.8333C39.557 26.3342 40.2626 26.5589 40.8535 26.9767C41.4444 27.3944 41.8917 27.9847 42.1338 28.6667H33.1995C33.4417 27.9847 33.8889 27.3944 34.4798 26.9767C35.0707 26.5589 35.7763 26.3342 36.5 26.3333ZM44.6667 46.1667C44.6667 47.0949 44.2979 47.9852 43.6415 48.6415C42.9852 49.2979 42.0949 49.6667 41.1667 49.6667H34.1667C33.2384 49.6667 32.3482 49.2979 31.6918 48.6415C31.0354 47.9852 30.6667 47.0949 30.6667 46.1667V31H44.6667V46.1667Z" fill="white"/>
<path id="Vector_2" d="M35.3334 45C35.6428 45 35.9395 44.877 36.1583 44.6583C36.3771 44.4395 36.5001 44.1427 36.5001 43.8333V36.8333C36.5001 36.5239 36.3771 36.2271 36.1583 36.0083C35.9395 35.7895 35.6428 35.6666 35.3334 35.6666C35.024 35.6666 34.7272 35.7895 34.5084 36.0083C34.2896 36.2271 34.1667 36.5239 34.1667 36.8333V43.8333C34.1667 44.1427 34.2896 44.4395 34.5084 44.6583C34.7272 44.877 35.024 45 35.3334 45Z" fill="white"/>
<path id="Vector_3" d="M39.9999 45C40.3094 45 40.6061 44.877 40.8249 44.6583C41.0437 44.4395 41.1666 44.1427 41.1666 43.8333V36.8333C41.1666 36.5239 41.0437 36.2271 40.8249 36.0083C40.6061 35.7895 40.3094 35.6666 39.9999 35.6666C39.6905 35.6666 39.3938 35.7895 39.175 36.0083C38.9562 36.2271 38.8333 36.5239 38.8333 36.8333V43.8333C38.8333 44.1427 38.9562 44.4395 39.175 44.6583C39.3938 44.877 39.6905 45 39.9999 45Z" fill="white"/>
</g>
</g>
</svg>
