<svg width="30" height="28" viewBox="0 0 30 28" fill="none" xmlns="http://www.w3.org/2000/svg">
<path id="Vector" d="M23.75 0H6.25C2.80375 0 0 2.80375 0 6.25V21.25C0 24.6963 2.80375 27.5 6.25 27.5H23.75C27.1963 27.5 30 24.6963 30 21.25V6.25C30 2.80375 27.1963 0 23.75 0ZM8.125 21.875C7.09 21.875 6.25 21.035 6.25 20C6.25 18.965 7.09 18.125 8.125 18.125C9.16 18.125 10 18.965 10 20C10 21.035 9.16 21.875 8.125 21.875ZM8.125 15.625C7.09 15.625 6.25 14.785 6.25 13.75C6.25 12.715 7.09 11.875 8.125 11.875C9.16 11.875 10 12.715 10 13.75C10 14.785 9.16 15.625 8.125 15.625ZM8.125 9.375C7.09 9.375 6.25 8.535 6.25 7.5C6.25 6.465 7.09 5.625 8.125 5.625C9.16 5.625 10 6.465 10 7.5C10 8.535 9.16 9.375 8.125 9.375ZM22.5 21.25H13.75C13.06 21.25 12.5 20.69 12.5 20C12.5 19.31 13.06 18.75 13.75 18.75H22.5C23.19 18.75 23.75 19.31 23.75 20C23.75 20.69 23.19 21.25 22.5 21.25ZM22.5 15H13.75C13.06 15 12.5 14.44 12.5 13.75C12.5 13.06 13.06 12.5 13.75 12.5H22.5C23.19 12.5 23.75 13.06 23.75 13.75C23.75 14.44 23.19 15 22.5 15ZM22.5 8.75H13.75C13.06 8.75 12.5 8.19 12.5 7.5C12.5 6.81 13.06 6.25 13.75 6.25H22.5C23.19 6.25 23.75 6.81 23.75 7.5C23.75 8.19 23.19 8.75 22.5 8.75Z" fill="#00BA9B"/>
</svg>
