<svg width="17" height="19" viewBox="0 0 17 19" fill="none" xmlns="http://www.w3.org/2000/svg">
<g id="Group 21">
<path id="Vector" d="M13.0834 6.2778C14.4181 6.2778 15.5 5.19582 15.5 3.86113C15.5 2.52644 14.4181 1.44446 13.0834 1.44446C11.7487 1.44446 10.6667 2.52644 10.6667 3.86113C10.6667 5.19582 11.7487 6.2778 13.0834 6.2778Z" stroke="black" stroke-width="1.5" stroke-linecap="round" stroke-linejoin="round"/>
<path id="Vector_2" d="M3.41667 11.9167C4.75136 11.9167 5.83335 10.8347 5.83335 9.50003C5.83335 8.16534 4.75136 7.08336 3.41667 7.08336C2.08198 7.08336 1 8.16534 1 9.50003C1 10.8347 2.08198 11.9167 3.41667 11.9167Z" stroke="black" stroke-width="1.5" stroke-linecap="round" stroke-linejoin="round"/>
<path id="Vector_3" d="M13.0834 17.5556C14.4181 17.5556 15.5 16.4736 15.5 15.1389C15.5 13.8042 14.4181 12.7223 13.0834 12.7223C11.7487 12.7223 10.6667 13.8042 10.6667 15.1389C10.6667 16.4736 11.7487 17.5556 13.0834 17.5556Z" stroke="black" stroke-width="1.5" stroke-linecap="round" stroke-linejoin="round"/>
<path id="Vector_4" d="M5.50305 10.7164L11.005 13.9225" stroke="black" stroke-width="1.5" stroke-linecap="round" stroke-linejoin="round"/>
<path id="Vector_5" d="M10.997 5.07747L5.50305 8.28359" stroke="black" stroke-width="1.5" stroke-linecap="round" stroke-linejoin="round"/>
</g>
</svg>
