<svg width="21" height="23" viewBox="0 0 21 23" fill="none" xmlns="http://www.w3.org/2000/svg">
<path d="M16.75 7.3C18.4897 7.3 19.9 5.8897 19.9 4.15C19.9 2.4103 18.4897 1 16.75 1C15.0103 1 13.6 2.4103 13.6 4.15C13.6 5.8897 15.0103 7.3 16.75 7.3Z" stroke="#3C39D1" stroke-width="2" stroke-linecap="round" stroke-linejoin="round"/>
<path d="M4.15 14.65C5.8897 14.65 7.3 13.2397 7.3 11.5C7.3 9.76031 5.8897 8.35001 4.15 8.35001C2.4103 8.35001 1 9.76031 1 11.5C1 13.2397 2.4103 14.65 4.15 14.65Z" stroke="#3C39D1" stroke-width="2" stroke-linecap="round" stroke-linejoin="round"/>
<path d="M16.75 22C18.4897 22 19.9 20.5897 19.9 18.85C19.9 17.1103 18.4897 15.7 16.75 15.7C15.0103 15.7 13.6 17.1103 13.6 18.85C13.6 20.5897 15.0103 22 16.75 22Z" stroke="#3C39D1" stroke-width="2" stroke-linecap="round" stroke-linejoin="round"/>
<path d="M6.86951 13.0855L14.041 17.2645" stroke="#3C39D1" stroke-width="2" stroke-linecap="round" stroke-linejoin="round"/>
<path d="M14.0305 5.7355L6.86951 9.9145" stroke="#3C39D1" stroke-width="2" stroke-linecap="round" stroke-linejoin="round"/>
</svg>
