<svg width="29" height="26" viewBox="0 0 29 26" fill="none" xmlns="http://www.w3.org/2000/svg">
<path d="M29 8.85681V22.457C29 22.7701 28.8727 23.0703 28.6461 23.2917C28.4195 23.5131 28.1121 23.6375 27.7917 23.6375C27.4712 23.6375 27.1638 23.5131 26.9372 23.2917C26.7106 23.0703 26.5833 22.7701 26.5833 22.457V12.7196L17.6416 16.8941C16.6988 17.4378 15.6225 17.721 14.5277 17.7134C13.3796 17.7152 12.2524 17.4137 11.2652 16.841L2.34769 12.6937C1.64671 12.3254 1.05938 11.7805 0.646621 11.1157C0.233866 10.4508 0.010734 9.69011 0.000377685 8.91257C-0.00997864 8.13502 0.192818 7.36894 0.587725 6.6938C0.982631 6.01866 1.55526 5.45906 2.24619 5.07308C2.27882 5.0542 2.31386 5.03649 2.34769 5.01996L11.3583 0.819495C12.3311 0.273673 13.4351 -0.0091132 14.5569 0.000223952C15.6786 0.00956111 16.7776 0.310684 17.7407 0.872621L26.6522 5.01996C27.3554 5.40008 27.943 5.95531 28.3554 6.62922C28.7678 7.30314 28.9902 8.0717 29 8.85681ZM14.5265 20.0722C12.9806 20.0756 11.4611 19.6797 10.1221 18.9247L4.83324 16.4585V19.646C4.83396 20.9063 5.24694 22.1334 6.01189 23.1481C6.77684 24.1629 7.85374 24.9122 9.08539 25.2868C10.8451 25.7804 12.6692 26.0203 14.4999 25.9987C16.3309 26.0187 18.155 25.7773 19.9145 25.2821C21.1462 24.9075 22.223 24.1582 22.988 23.1434C23.753 22.1287 24.1659 20.9016 24.1666 19.6413V16.4644L18.7787 18.979C17.4853 19.705 16.0181 20.083 14.5265 20.0746V20.0722Z" fill="#00BA9B"/>
</svg>
