<svg width="28" height="28" viewBox="0 0 28 28" fill="none" xmlns="http://www.w3.org/2000/svg">
<path d="M0.566619 9.4389L12.072 16.341C12.6669 16.6979 13.3331 16.8764 14.0004 16.8764C14.6665 16.8764 15.3339 16.6979 15.9288 16.341L27.433 9.4389C27.7842 9.22777 27.9988 8.84866 27.9988 8.43922C27.9988 8.02979 27.7842 7.64951 27.433 7.43955L15.93 0.536291C14.7389 -0.178764 13.2619 -0.178764 12.072 0.536291L0.566619 7.43838C0.215463 7.64951 0.000802389 8.02862 0.000802389 8.43806C0.000802389 8.84749 0.215463 9.22777 0.566619 9.43773V9.4389ZM13.2724 2.53681C13.7204 2.26852 14.2792 2.26852 14.7284 2.53681L24.5654 8.43922L14.7284 14.3416C14.2792 14.6099 13.7204 14.6099 13.2713 14.3416L3.43537 8.43806L13.2724 2.53681ZM28 23.3341C28 23.9791 27.4773 24.5005 26.8334 24.5005H24.5001V26.8335C24.5001 27.4786 23.9774 28 23.3335 28C22.6895 28 22.1668 27.4786 22.1668 26.8335V24.5005H19.8336C19.1896 24.5005 18.6669 23.9791 18.6669 23.3341C18.6669 22.689 19.1896 22.1676 19.8336 22.1676H22.1668V19.8346C22.1668 19.1895 22.6895 18.6681 23.3335 18.6681C23.9774 18.6681 24.5001 19.1895 24.5001 19.8346V22.1676H26.8334C27.4773 22.1676 28 22.689 28 23.3341ZM15.0002 27.1671C14.7809 27.5311 14.3947 27.7329 13.9992 27.7329C13.7951 27.7329 13.5874 27.6792 13.3996 27.5661L0.566619 19.8684C0.0136353 19.5372 -0.16486 18.8209 0.166464 18.268C0.496621 17.7151 1.21293 17.5355 1.76709 17.8679L14.6 25.5667C15.153 25.898 15.3315 26.6142 15.0002 27.1671ZM27.8332 12.9407C28.1645 13.4936 27.986 14.2098 27.433 14.5411L14.6 22.2399C14.4146 22.3507 14.2081 22.4067 13.9992 22.4067C13.7904 22.4067 13.5839 22.3507 13.3984 22.2399L0.566619 14.5411C0.0136353 14.2098 -0.16486 13.4936 0.166464 12.9407C0.496621 12.3866 1.21293 12.2081 1.76709 12.5406L13.9992 19.8789L26.2314 12.5406C26.7844 12.2093 27.5018 12.3878 27.8332 12.9407Z" fill="white"/>
</svg>
