<svg width="24" height="28" viewBox="0 0 24 28" fill="none" xmlns="http://www.w3.org/2000/svg">
<path d="M22.1667 4.66667H18.55C18.2792 3.34998 17.5628 2.1669 16.5215 1.31684C15.4801 0.466772 14.1776 0.00169695 12.8333 0L10.5 0C9.15576 0.00169695 7.85321 0.466772 6.81187 1.31684C5.77054 2.1669 5.05411 3.34998 4.78333 4.66667H1.16667C0.857247 4.66667 0.560501 4.78958 0.341709 5.00838C0.122916 5.22717 0 5.52391 0 5.83333C0 6.14275 0.122916 6.4395 0.341709 6.65829C0.560501 6.87708 0.857247 7 1.16667 7H2.33333V22.1667C2.33519 23.7132 2.95036 25.1959 4.04392 26.2894C5.13748 27.383 6.62014 27.9981 8.16667 28H15.1667C16.7132 27.9981 18.1959 27.383 19.2894 26.2894C20.383 25.1959 20.9981 23.7132 21 22.1667V7H22.1667C22.4761 7 22.7728 6.87708 22.9916 6.65829C23.2104 6.4395 23.3333 6.14275 23.3333 5.83333C23.3333 5.52391 23.2104 5.22717 22.9916 5.00838C22.7728 4.78958 22.4761 4.66667 22.1667 4.66667ZM10.5 2.33333H12.8333C13.557 2.33422 14.2626 2.55894 14.8535 2.97668C15.4444 3.39443 15.8917 3.98474 16.1338 4.66667H7.1995C7.44168 3.98474 7.88888 3.39443 8.47978 2.97668C9.07069 2.55894 9.77635 2.33422 10.5 2.33333ZM18.6667 22.1667C18.6667 23.0949 18.2979 23.9852 17.6415 24.6415C16.9852 25.2979 16.0949 25.6667 15.1667 25.6667H8.16667C7.23841 25.6667 6.34817 25.2979 5.69179 24.6415C5.03542 23.9852 4.66667 23.0949 4.66667 22.1667V7H18.6667V22.1667Z" fill="white"/>
<path d="M9.33335 21C9.64277 21 9.93952 20.877 10.1583 20.6583C10.3771 20.4395 10.5 20.1427 10.5 19.8333V12.8333C10.5 12.5239 10.3771 12.2271 10.1583 12.0083C9.93952 11.7895 9.64277 11.6666 9.33335 11.6666C9.02393 11.6666 8.72719 11.7895 8.5084 12.0083C8.2896 12.2271 8.16669 12.5239 8.16669 12.8333V19.8333C8.16669 20.1427 8.2896 20.4395 8.5084 20.6583C8.72719 20.877 9.02393 21 9.33335 21Z" fill="white"/>
<path d="M14 21C14.3094 21 14.6061 20.877 14.8249 20.6583C15.0437 20.4395 15.1666 20.1427 15.1666 19.8333V12.8333C15.1666 12.5239 15.0437 12.2271 14.8249 12.0083C14.6061 11.7895 14.3094 11.6666 14 11.6666C13.6906 11.6666 13.3938 11.7895 13.175 12.0083C12.9562 12.2271 12.8333 12.5239 12.8333 12.8333V19.8333C12.8333 20.1427 12.9562 20.4395 13.175 20.6583C13.3938 20.877 13.6906 21 14 21Z" fill="white"/>
</svg>
