<svg width="13" height="19" viewBox="0 0 13 19" fill="none" xmlns="http://www.w3.org/2000/svg">
<path d="M10.3926 5.00586V11.4727C10.3926 12.1608 10.2399 12.7829 9.93457 13.3389C9.63379 13.8903 9.17578 14.3278 8.56055 14.6514C7.94987 14.9749 7.17969 15.1367 6.25 15.1367C4.92839 15.1367 3.92122 14.7995 3.22852 14.125C2.53581 13.4505 2.18945 12.5573 2.18945 11.4453V5.00586H4.30176V11.124C4.30176 11.9489 4.47038 12.5277 4.80762 12.8604C5.14486 13.193 5.64388 13.3594 6.30469 13.3594C6.76953 13.3594 7.14551 13.2796 7.43262 13.1201C7.72428 12.9606 7.93848 12.7145 8.0752 12.3818C8.21191 12.0492 8.28027 11.6253 8.28027 11.1104V5.00586H10.3926Z" fill="#DEDEDE"/>
<rect y="17" width="13" height="1" fill="#D9D9D9"/>
</svg>
